G71*
G90*
G04 Quadcept GERBER*
%MOMM*%
%FSLAX44Y44*%
%ADD10C,0*%
%ADD11C,0.1*%
%ADD12C,0.15*%
%ADD13C,0.2*%
G54D10*
G75*
G36*
G01X45821Y495793D02*
G01X45805Y495977D01*
G01X45773Y496160D01*
G01X45725Y496339D01*
G01X45662Y496513D01*
G01X45583Y496680D01*
G01X45491Y496841D01*
G01X45384Y496993D01*
G01X45265Y497135D01*
G01X45134Y497265D01*
G01X44993Y497385D01*
G01X44841Y497491D01*
G01X44680Y497583D01*
G01X44512Y497662D01*
G01X44338Y497725D01*
G01X44159Y497773D01*
G01X43977Y497805D01*
G01X43793Y497821D01*
G01X43607Y497821D01*
G01X43423Y497805D01*
G01X43240Y497773D01*
G01X43061Y497725D01*
G01X42887Y497662D01*
G01X42719Y497583D01*
G01X42559Y497491D01*
G01X42407Y497385D01*
G01X42265Y497265D01*
G01X42134Y497135D01*
G01X42015Y496993D01*
G01X41909Y496841D01*
G01X41816Y496680D01*
G01X41738Y496513D01*
G01X41675Y496339D01*
G01X41627Y496160D01*
G01X41595Y495977D01*
G01X41579Y495793D01*
G01X41579Y495607D01*
G01X41595Y495423D01*
G01X41627Y495240D01*
G01X41675Y495061D01*
G01X41738Y494887D01*
G01X41816Y494720D01*
G01X41909Y494559D01*
G01X42015Y494407D01*
G01X42134Y494265D01*
G01X42265Y494135D01*
G01X42407Y494015D01*
G01X42559Y493909D01*
G01X42719Y493817D01*
G01X42887Y493738D01*
G01X43061Y493675D01*
G01X43240Y493627D01*
G01X43423Y493595D01*
G01X43607Y493579D01*
G01X43793Y493579D01*
G01X43977Y493595D01*
G01X44159Y493627D01*
G01X44338Y493675D01*
G01X44512Y493738D01*
G01X44680Y493817D01*
G01X44841Y493909D01*
G01X44993Y494015D01*
G01X45134Y494135D01*
G01X45265Y494265D01*
G01X45384Y494407D01*
G01X45491Y494559D01*
G01X45583Y494720D01*
G01X45662Y494887D01*
G01X45725Y495061D01*
G01X45773Y495240D01*
G01X45805Y495423D01*
G01X45821Y495607D01*
G01X45821Y495793D01*
G37*
G54D11*
G01X15700Y491700D02*
G01X45700Y491700D01*
G01X15700Y521700D02*
G01X15700Y491700D01*
G01X45700Y491700D02*
G01X45700Y521700D01*
G01X45700Y521700D02*
G01X15700Y521700D01*
G54D12*
G01X-52090Y535750D02*
G01X-51770Y536550D01*
G01X-51770Y536550D02*
G01X-51166Y537350D01*
G01X-51166Y537350D02*
G01X-50526Y537750D01*
G01X-50526Y537750D02*
G01X-49281Y537750D01*
G01X-49281Y537750D02*
G01X-48677Y537350D01*
G01X-48677Y537350D02*
G01X-48037Y536550D01*
G01X-48037Y536550D02*
G01X-47752Y535750D01*
G01X-47752Y535750D02*
G01X-47432Y534550D01*
G01X-47432Y534550D02*
G01X-47432Y532550D01*
G01X-47432Y532550D02*
G01X-47752Y531350D01*
G01X-47752Y531350D02*
G01X-48037Y530550D01*
G01X-48037Y530550D02*
G01X-48677Y529750D01*
G01X-48677Y529750D02*
G01X-49281Y529350D01*
G01X-49281Y529350D02*
G01X-50526Y529350D01*
G01X-50526Y529350D02*
G01X-51166Y529750D01*
G01X-51166Y529750D02*
G01X-51770Y530550D01*
G01X-51770Y530550D02*
G01X-52090Y531350D01*
G01X-60068Y537750D02*
G01X-56512Y529350D01*
G01X-55090Y537750D02*
G01X-60068Y537750D01*
G01X-88390Y482250D02*
G01X-88070Y483050D01*
G01X-88070Y483050D02*
G01X-87466Y483850D01*
G01X-87466Y483850D02*
G01X-86826Y484250D01*
G01X-86826Y484250D02*
G01X-85581Y484250D01*
G01X-85581Y484250D02*
G01X-84977Y483850D01*
G01X-84977Y483850D02*
G01X-84337Y483050D01*
G01X-84337Y483050D02*
G01X-84052Y482250D01*
G01X-84052Y482250D02*
G01X-83732Y481050D01*
G01X-83732Y481050D02*
G01X-83732Y479050D01*
G01X-83732Y479050D02*
G01X-84052Y477850D01*
G01X-84052Y477850D02*
G01X-84337Y477050D01*
G01X-84337Y477050D02*
G01X-84977Y476250D01*
G01X-84977Y476250D02*
G01X-85581Y475850D01*
G01X-85581Y475850D02*
G01X-86826Y475850D01*
G01X-86826Y475850D02*
G01X-87466Y476250D01*
G01X-87466Y476250D02*
G01X-88070Y477050D01*
G01X-88070Y477050D02*
G01X-88390Y477850D01*
G01X-93168Y484250D02*
G01X-92101Y483850D01*
G01X-92101Y483850D02*
G01X-91746Y483050D01*
G01X-91746Y483050D02*
G01X-91746Y482250D01*
G01X-91746Y482250D02*
G01X-92101Y481450D01*
G01X-92101Y481450D02*
G01X-92812Y481050D01*
G01X-92812Y481050D02*
G01X-94234Y480650D01*
G01X-94234Y480650D02*
G01X-95301Y480250D01*
G01X-95301Y480250D02*
G01X-96012Y479450D01*
G01X-96012Y479450D02*
G01X-96368Y478650D01*
G01X-96368Y478650D02*
G01X-96368Y477450D01*
G01X-96368Y477450D02*
G01X-96012Y476650D01*
G01X-96012Y476650D02*
G01X-95657Y476250D01*
G01X-95657Y476250D02*
G01X-94590Y475850D01*
G01X-94590Y475850D02*
G01X-93168Y475850D01*
G01X-93168Y475850D02*
G01X-92101Y476250D01*
G01X-92101Y476250D02*
G01X-91746Y476650D01*
G01X-91746Y476650D02*
G01X-91390Y477450D01*
G01X-91390Y477450D02*
G01X-91390Y478650D01*
G01X-91390Y478650D02*
G01X-91746Y479450D01*
G01X-91746Y479450D02*
G01X-92457Y480250D01*
G01X-92457Y480250D02*
G01X-93523Y480650D01*
G01X-93523Y480650D02*
G01X-94946Y481050D01*
G01X-94946Y481050D02*
G01X-95657Y481450D01*
G01X-95657Y481450D02*
G01X-96012Y482250D01*
G01X-96012Y482250D02*
G01X-96012Y483050D01*
G01X-96012Y483050D02*
G01X-95657Y483850D01*
G01X-95657Y483850D02*
G01X-94590Y484250D01*
G01X-94590Y484250D02*
G01X-93168Y484250D01*
G01X-59522Y408600D02*
G01X-59522Y402600D01*
G01X-59522Y402600D02*
G01X-59878Y401400D01*
G01X-59878Y401400D02*
G01X-60589Y400600D01*
G01X-60589Y400600D02*
G01X-61656Y400200D01*
G01X-61656Y400200D02*
G01X-62367Y400200D01*
G01X-62367Y400200D02*
G01X-63433Y400600D01*
G01X-63433Y400600D02*
G01X-64144Y401400D01*
G01X-64144Y401400D02*
G01X-64500Y402600D01*
G01X-64500Y402600D02*
G01X-64500Y408600D01*
G01X-68211Y408600D02*
G01X-72122Y408600D01*
G01X-72122Y408600D02*
G01X-69989Y405400D01*
G01X-69989Y405400D02*
G01X-71056Y405400D01*
G01X-71056Y405400D02*
G01X-71767Y405000D01*
G01X-71767Y405000D02*
G01X-72122Y404600D01*
G01X-72122Y404600D02*
G01X-72478Y403400D01*
G01X-72478Y403400D02*
G01X-72478Y402600D01*
G01X-72478Y402600D02*
G01X-72122Y401400D01*
G01X-72122Y401400D02*
G01X-71411Y400600D01*
G01X-71411Y400600D02*
G01X-70344Y400200D01*
G01X-70344Y400200D02*
G01X-69278Y400200D01*
G01X-69278Y400200D02*
G01X-68211Y400600D01*
G01X-68211Y400600D02*
G01X-67856Y401000D01*
G01X-67856Y401000D02*
G01X-67500Y401800D01*
G01X-123718Y132400D02*
G01X-123398Y133200D01*
G01X-123398Y133200D02*
G01X-122793Y134000D01*
G01X-122793Y134000D02*
G01X-122153Y134400D01*
G01X-122153Y134400D02*
G01X-120909Y134400D01*
G01X-120909Y134400D02*
G01X-120304Y134000D01*
G01X-120304Y134000D02*
G01X-119664Y133200D01*
G01X-119664Y133200D02*
G01X-119380Y132400D01*
G01X-119380Y132400D02*
G01X-119060Y131200D01*
G01X-119060Y131200D02*
G01X-119060Y129200D01*
G01X-119060Y129200D02*
G01X-119380Y128000D01*
G01X-119380Y128000D02*
G01X-119664Y127200D01*
G01X-119664Y127200D02*
G01X-120304Y126400D01*
G01X-120304Y126400D02*
G01X-120909Y126000D01*
G01X-120909Y126000D02*
G01X-122153Y126000D01*
G01X-122153Y126000D02*
G01X-122793Y126400D01*
G01X-122793Y126400D02*
G01X-123398Y127200D01*
G01X-123398Y127200D02*
G01X-123718Y128000D01*
G01X-131340Y131600D02*
G01X-130984Y130400D01*
G01X-130984Y130400D02*
G01X-130273Y129600D01*
G01X-130273Y129600D02*
G01X-129207Y129200D01*
G01X-129207Y129200D02*
G01X-128851Y129200D01*
G01X-128851Y129200D02*
G01X-127784Y129600D01*
G01X-127784Y129600D02*
G01X-127073Y130400D01*
G01X-127073Y130400D02*
G01X-126718Y131600D01*
G01X-126718Y131600D02*
G01X-126718Y132000D01*
G01X-126718Y132000D02*
G01X-127073Y133200D01*
G01X-127073Y133200D02*
G01X-127784Y134000D01*
G01X-127784Y134000D02*
G01X-128851Y134400D01*
G01X-128851Y134400D02*
G01X-129207Y134400D01*
G01X-129207Y134400D02*
G01X-130273Y134000D01*
G01X-130273Y134000D02*
G01X-130984Y133200D01*
G01X-130984Y133200D02*
G01X-131340Y131600D01*
G01X-131340Y131600D02*
G01X-130984Y130400D01*
G01X-130984Y130400D02*
G01X-129029Y126000D01*
G01X-89051Y127450D02*
G01X-88731Y128250D01*
G01X-88731Y128250D02*
G01X-88127Y129050D01*
G01X-88127Y129050D02*
G01X-87487Y129450D01*
G01X-87487Y129450D02*
G01X-86242Y129450D01*
G01X-86242Y129450D02*
G01X-85638Y129050D01*
G01X-85638Y129050D02*
G01X-84998Y128250D01*
G01X-84998Y128250D02*
G01X-84713Y127450D01*
G01X-84713Y127450D02*
G01X-84393Y126250D01*
G01X-84393Y126250D02*
G01X-84393Y124250D01*
G01X-84393Y124250D02*
G01X-84713Y123050D01*
G01X-84713Y123050D02*
G01X-84998Y122250D01*
G01X-84998Y122250D02*
G01X-85638Y121450D01*
G01X-85638Y121450D02*
G01X-86242Y121050D01*
G01X-86242Y121050D02*
G01X-87487Y121050D01*
G01X-87487Y121050D02*
G01X-88127Y121450D01*
G01X-88127Y121450D02*
G01X-88731Y122250D01*
G01X-88731Y122250D02*
G01X-89051Y123050D01*
G01X-92051Y127850D02*
G01X-92762Y128250D01*
G01X-92762Y128250D02*
G01X-93829Y129450D01*
G01X-93829Y129450D02*
G01X-93829Y121050D01*
G01X-98962Y129450D02*
G01X-97896Y129050D01*
G01X-97896Y129050D02*
G01X-97184Y127850D01*
G01X-97184Y127850D02*
G01X-96829Y125850D01*
G01X-96829Y125850D02*
G01X-96829Y124650D01*
G01X-96829Y124650D02*
G01X-97184Y122650D01*
G01X-97184Y122650D02*
G01X-97896Y121450D01*
G01X-97896Y121450D02*
G01X-98962Y121050D01*
G01X-98962Y121050D02*
G01X-99673Y121050D01*
G01X-99673Y121050D02*
G01X-100740Y121450D01*
G01X-100740Y121450D02*
G01X-101451Y122650D01*
G01X-101451Y122650D02*
G01X-101807Y124650D01*
G01X-101807Y124650D02*
G01X-101807Y125850D01*
G01X-101807Y125850D02*
G01X-101451Y127850D01*
G01X-101451Y127850D02*
G01X-100740Y129050D01*
G01X-100740Y129050D02*
G01X-99673Y129450D01*
G01X-99673Y129450D02*
G01X-98962Y129450D01*
G01X-79833Y538750D02*
G01X-79833Y530350D01*
G01X-79833Y538750D02*
G01X-83033Y538750D01*
G01X-83033Y538750D02*
G01X-84100Y538350D01*
G01X-84100Y538350D02*
G01X-84456Y537950D01*
G01X-84456Y537950D02*
G01X-84811Y537150D01*
G01X-84811Y537150D02*
G01X-84811Y536350D01*
G01X-84811Y536350D02*
G01X-84456Y535550D01*
G01X-84456Y535550D02*
G01X-84100Y535150D01*
G01X-84100Y535150D02*
G01X-83033Y534750D01*
G01X-83033Y534750D02*
G01X-79833Y534750D01*
G01X-82322Y534750D02*
G01X-84811Y530350D01*
G01X-88167Y536750D02*
G01X-88167Y537150D01*
G01X-88167Y537150D02*
G01X-88522Y537950D01*
G01X-88522Y537950D02*
G01X-88878Y538350D01*
G01X-88878Y538350D02*
G01X-89589Y538750D01*
G01X-89589Y538750D02*
G01X-91011Y538750D01*
G01X-91011Y538750D02*
G01X-91722Y538350D01*
G01X-91722Y538350D02*
G01X-92078Y537950D01*
G01X-92078Y537950D02*
G01X-92433Y537150D01*
G01X-92433Y537150D02*
G01X-92433Y536350D01*
G01X-92433Y536350D02*
G01X-92078Y535550D01*
G01X-92078Y535550D02*
G01X-91367Y534350D01*
G01X-91367Y534350D02*
G01X-87811Y530350D01*
G01X-87811Y530350D02*
G01X-92789Y530350D01*
G01X-95789Y537150D02*
G01X-96500Y537550D01*
G01X-96500Y537550D02*
G01X-97567Y538750D01*
G01X-97567Y538750D02*
G01X-97567Y530350D01*
G01X106982Y543200D02*
G01X107302Y544000D01*
G01X107302Y544000D02*
G01X107907Y544800D01*
G01X107907Y544800D02*
G01X108547Y545200D01*
G01X108547Y545200D02*
G01X109791Y545200D01*
G01X109791Y545200D02*
G01X110396Y544800D01*
G01X110396Y544800D02*
G01X111036Y544000D01*
G01X111036Y544000D02*
G01X111320Y543200D01*
G01X111320Y543200D02*
G01X111640Y542000D01*
G01X111640Y542000D02*
G01X111640Y540000D01*
G01X111640Y540000D02*
G01X111320Y538800D01*
G01X111320Y538800D02*
G01X111036Y538000D01*
G01X111036Y538000D02*
G01X110396Y537200D01*
G01X110396Y537200D02*
G01X109791Y536800D01*
G01X109791Y536800D02*
G01X108547Y536800D01*
G01X108547Y536800D02*
G01X107907Y537200D01*
G01X107907Y537200D02*
G01X107302Y538000D01*
G01X107302Y538000D02*
G01X106982Y538800D01*
G01X99716Y544000D02*
G01X100071Y544800D01*
G01X100071Y544800D02*
G01X101138Y545200D01*
G01X101138Y545200D02*
G01X101849Y545200D01*
G01X101849Y545200D02*
G01X102916Y544800D01*
G01X102916Y544800D02*
G01X103627Y543600D01*
G01X103627Y543600D02*
G01X103982Y541600D01*
G01X103982Y541600D02*
G01X103982Y539600D01*
G01X103982Y539600D02*
G01X103627Y538000D01*
G01X103627Y538000D02*
G01X102916Y537200D01*
G01X102916Y537200D02*
G01X101849Y536800D01*
G01X101849Y536800D02*
G01X101493Y536800D01*
G01X101493Y536800D02*
G01X100427Y537200D01*
G01X100427Y537200D02*
G01X99716Y538000D01*
G01X99716Y538000D02*
G01X99360Y539200D01*
G01X99360Y539200D02*
G01X99360Y539600D01*
G01X99360Y539600D02*
G01X99716Y540800D01*
G01X99716Y540800D02*
G01X100427Y541600D01*
G01X100427Y541600D02*
G01X101493Y542000D01*
G01X101493Y542000D02*
G01X101849Y542000D01*
G01X101849Y542000D02*
G01X102916Y541600D01*
G01X102916Y541600D02*
G01X103627Y540800D01*
G01X103627Y540800D02*
G01X103982Y539600D01*
G01X86789Y510050D02*
G01X86789Y501650D01*
G01X86789Y510050D02*
G01X83589Y510050D01*
G01X83589Y510050D02*
G01X82522Y509650D01*
G01X82522Y509650D02*
G01X82167Y509250D01*
G01X82167Y509250D02*
G01X81811Y508450D01*
G01X81811Y508450D02*
G01X81811Y507650D01*
G01X81811Y507650D02*
G01X82167Y506850D01*
G01X82167Y506850D02*
G01X82522Y506450D01*
G01X82522Y506450D02*
G01X83589Y506050D01*
G01X83589Y506050D02*
G01X86789Y506050D01*
G01X84300Y506050D02*
G01X81811Y501650D01*
G01X78811Y508450D02*
G01X78100Y508850D01*
G01X78100Y508850D02*
G01X77033Y510050D01*
G01X77033Y510050D02*
G01X77033Y501650D01*
G01X69411Y507250D02*
G01X69767Y506050D01*
G01X69767Y506050D02*
G01X70478Y505250D01*
G01X70478Y505250D02*
G01X71545Y504850D01*
G01X71545Y504850D02*
G01X71900Y504850D01*
G01X71900Y504850D02*
G01X72967Y505250D01*
G01X72967Y505250D02*
G01X73678Y506050D01*
G01X73678Y506050D02*
G01X74033Y507250D01*
G01X74033Y507250D02*
G01X74033Y507650D01*
G01X74033Y507650D02*
G01X73678Y508850D01*
G01X73678Y508850D02*
G01X72967Y509650D01*
G01X72967Y509650D02*
G01X71900Y510050D01*
G01X71900Y510050D02*
G01X71545Y510050D01*
G01X71545Y510050D02*
G01X70478Y509650D01*
G01X70478Y509650D02*
G01X69767Y508850D01*
G01X69767Y508850D02*
G01X69411Y507250D01*
G01X69411Y507250D02*
G01X69767Y506050D01*
G01X69767Y506050D02*
G01X71722Y501650D01*
G01X83067Y544550D02*
G01X83067Y536150D01*
G01X83067Y544550D02*
G01X79867Y544550D01*
G01X79867Y544550D02*
G01X78800Y544150D01*
G01X78800Y544150D02*
G01X78445Y543750D01*
G01X78445Y543750D02*
G01X78089Y542950D01*
G01X78089Y542950D02*
G01X78089Y542150D01*
G01X78089Y542150D02*
G01X78445Y541350D01*
G01X78445Y541350D02*
G01X78800Y540950D01*
G01X78800Y540950D02*
G01X79867Y540550D01*
G01X79867Y540550D02*
G01X83067Y540550D01*
G01X80578Y540550D02*
G01X78089Y536150D01*
G01X74733Y542550D02*
G01X74733Y542950D01*
G01X74733Y542950D02*
G01X74378Y543750D01*
G01X74378Y543750D02*
G01X74022Y544150D01*
G01X74022Y544150D02*
G01X73311Y544550D01*
G01X73311Y544550D02*
G01X71889Y544550D01*
G01X71889Y544550D02*
G01X71178Y544150D01*
G01X71178Y544150D02*
G01X70822Y543750D01*
G01X70822Y543750D02*
G01X70467Y542950D01*
G01X70467Y542950D02*
G01X70467Y542150D01*
G01X70467Y542150D02*
G01X70822Y541350D01*
G01X70822Y541350D02*
G01X71533Y540150D01*
G01X71533Y540150D02*
G01X75089Y536150D01*
G01X75089Y536150D02*
G01X70111Y536150D01*
G01X64978Y544550D02*
G01X66045Y544150D01*
G01X66045Y544150D02*
G01X66756Y542950D01*
G01X66756Y542950D02*
G01X67111Y540950D01*
G01X67111Y540950D02*
G01X67111Y539750D01*
G01X67111Y539750D02*
G01X66756Y537750D01*
G01X66756Y537750D02*
G01X66045Y536550D01*
G01X66045Y536550D02*
G01X64978Y536150D01*
G01X64978Y536150D02*
G01X64267Y536150D01*
G01X64267Y536150D02*
G01X63200Y536550D01*
G01X63200Y536550D02*
G01X62489Y537750D01*
G01X62489Y537750D02*
G01X62133Y539750D01*
G01X62133Y539750D02*
G01X62133Y540950D01*
G01X62133Y540950D02*
G01X62489Y542950D01*
G01X62489Y542950D02*
G01X63200Y544150D01*
G01X63200Y544150D02*
G01X64267Y544550D01*
G01X64267Y544550D02*
G01X64978Y544550D01*
G01X10778Y518400D02*
G01X10778Y512400D01*
G01X10778Y512400D02*
G01X10422Y511200D01*
G01X10422Y511200D02*
G01X9711Y510400D01*
G01X9711Y510400D02*
G01X8644Y510000D01*
G01X8644Y510000D02*
G01X7933Y510000D01*
G01X7933Y510000D02*
G01X6867Y510400D01*
G01X6867Y510400D02*
G01X6156Y511200D01*
G01X6156Y511200D02*
G01X5800Y512400D01*
G01X5800Y512400D02*
G01X5800Y518400D01*
G01X2444Y516400D02*
G01X2444Y516800D01*
G01X2444Y516800D02*
G01X2089Y517600D01*
G01X2089Y517600D02*
G01X1733Y518000D01*
G01X1733Y518000D02*
G01X1022Y518400D01*
G01X1022Y518400D02*
G01X-0400Y518400D01*
G01X-0400Y518400D02*
G01X-1111Y518000D01*
G01X-1111Y518000D02*
G01X-1467Y517600D01*
G01X-1467Y517600D02*
G01X-1822Y516800D01*
G01X-1822Y516800D02*
G01X-1822Y516000D01*
G01X-1822Y516000D02*
G01X-1467Y515200D01*
G01X-1467Y515200D02*
G01X-0756Y514000D01*
G01X-0756Y514000D02*
G01X2800Y510000D01*
G01X2800Y510000D02*
G01X-2178Y510000D01*
G54D13*
G01X-131900Y541150D02*
G01X-131900Y515150D01*
G01X-131900Y515150D02*
G01X-157900Y515150D01*
G01X-157900Y515150D02*
G01X-157900Y541150D01*
G01X-157900Y541150D02*
G01X-131900Y541150D01*
G01X-45950Y526300D02*
G01X-59950Y526300D01*
G01X-45950Y496200D02*
G01X-45950Y526300D01*
G01X-59950Y496200D02*
G01X-45950Y496200D01*
G01X-59950Y526300D02*
G01X-59950Y496200D01*
G01X-102500Y502050D02*
G01X-102500Y488050D01*
G01X-72400Y502050D02*
G01X-102500Y502050D01*
G01X-72400Y488050D02*
G01X-72400Y502050D01*
G01X-102500Y488050D02*
G01X-72400Y488050D01*
G01X85000Y184900D02*
G01X-55000Y184900D01*
G01X-55000Y184900D02*
G01X-55000Y404900D01*
G01X-55000Y404900D02*
G01X85000Y404900D01*
G01X85000Y404900D02*
G01X85000Y184900D01*
G01X-112700Y106800D02*
G01X-137700Y106800D01*
G01X-112700Y84300D02*
G01X-112700Y122300D01*
G01X-137700Y99800D02*
G01X-112700Y99800D01*
G01X-137700Y122300D02*
G01X-137700Y84300D01*
G01X-112700Y105300D02*
G01X-137700Y105300D01*
G01X-112700Y103800D02*
G01X-137700Y103800D01*
G01X-112700Y102300D02*
G01X-137700Y102300D01*
G01X-112700Y101300D02*
G01X-137700Y101300D01*
G01X-87150Y116950D02*
G01X-101150Y116950D01*
G01X-87150Y86850D02*
G01X-87150Y116950D01*
G01X-101150Y86850D02*
G01X-87150Y86850D01*
G01X-101150Y116950D02*
G01X-101150Y86850D01*
G01X-127300Y248500D02*
G03I-12700J0D01*
G01X-127300Y223100D02*
G03I-12700J0D01*
G01X-127300Y197700D02*
G03I-12700J0D01*
G01X-72650Y512450D02*
G01X-72650Y526450D01*
G01X-102750Y512450D02*
G01X-72650Y512450D01*
G01X-102750Y526450D02*
G01X-102750Y512450D01*
G01X-72650Y526450D02*
G01X-102750Y526450D01*
G01X98350Y503050D02*
G01X112350Y503050D01*
G01X98350Y533150D02*
G01X98350Y503050D01*
G01X112350Y533150D02*
G01X98350Y533150D01*
G01X112350Y503050D02*
G01X112350Y533150D01*
G01X57350Y497750D02*
G01X57350Y483750D01*
G01X87450Y497750D02*
G01X57350Y497750D01*
G01X87450Y483750D02*
G01X87450Y497750D01*
G01X57350Y483750D02*
G01X87450Y483750D01*
G01X57350Y531750D02*
G01X57350Y517750D01*
G01X87450Y531750D02*
G01X57350Y531750D01*
G01X87450Y517750D02*
G01X87450Y531750D01*
G01X57350Y517750D02*
G01X87450Y517750D01*
G01X49618Y496000D02*
G03I-1118J0D01*
G01X-74345Y52900D02*
G01X-74345Y40300D01*
G01X-74345Y52900D02*
G01X-79892Y52900D01*
G01X-74345Y46900D02*
G01X-77759Y46900D01*
G01X-74345Y40300D02*
G01X-79892Y40300D01*
G01X-89365Y51100D02*
G01X-88512Y52300D01*
G01X-88512Y52300D02*
G01X-87232Y52900D01*
G01X-87232Y52900D02*
G01X-85525Y52900D01*
G01X-85525Y52900D02*
G01X-84245Y52300D01*
G01X-84245Y52300D02*
G01X-83392Y51100D01*
G01X-83392Y51100D02*
G01X-83392Y49900D01*
G01X-83392Y49900D02*
G01X-83819Y48700D01*
G01X-83819Y48700D02*
G01X-84245Y48100D01*
G01X-84245Y48100D02*
G01X-85099Y47500D01*
G01X-85099Y47500D02*
G01X-87659Y46300D01*
G01X-87659Y46300D02*
G01X-88512Y45700D01*
G01X-88512Y45700D02*
G01X-88939Y45100D01*
G01X-88939Y45100D02*
G01X-89365Y43900D01*
G01X-89365Y43900D02*
G01X-89365Y42100D01*
G01X-89365Y42100D02*
G01X-88512Y40900D01*
G01X-88512Y40900D02*
G01X-87232Y40300D01*
G01X-87232Y40300D02*
G01X-85525Y40300D01*
G01X-85525Y40300D02*
G01X-84245Y40900D01*
G01X-84245Y40900D02*
G01X-83392Y42100D01*
G01X-92865Y52900D02*
G01X-92865Y40300D01*
G01X-92865Y52900D02*
G01X-96705Y52900D01*
G01X-96705Y52900D02*
G01X-97985Y52300D01*
G01X-97985Y52300D02*
G01X-98412Y51700D01*
G01X-98412Y51700D02*
G01X-98839Y50500D01*
G01X-98839Y50500D02*
G01X-98839Y48700D01*
G01X-98839Y48700D02*
G01X-98412Y47500D01*
G01X-98412Y47500D02*
G01X-97985Y46900D01*
G01X-97985Y46900D02*
G01X-96705Y46300D01*
G01X-96705Y46300D02*
G01X-92865Y46300D01*
G01X-111428Y49900D02*
G01X-111044Y51100D01*
G01X-111044Y51100D02*
G01X-110319Y52300D01*
G01X-110319Y52300D02*
G01X-109551Y52900D01*
G01X-109551Y52900D02*
G01X-108057Y52900D01*
G01X-108057Y52900D02*
G01X-107332Y52300D01*
G01X-107332Y52300D02*
G01X-106564Y51100D01*
G01X-106564Y51100D02*
G01X-106223Y49900D01*
G01X-106223Y49900D02*
G01X-105839Y48100D01*
G01X-105839Y48100D02*
G01X-105839Y45100D01*
G01X-105839Y45100D02*
G01X-106223Y43300D01*
G01X-106223Y43300D02*
G01X-106564Y42100D01*
G01X-106564Y42100D02*
G01X-107332Y40900D01*
G01X-107332Y40900D02*
G01X-108057Y40300D01*
G01X-108057Y40300D02*
G01X-109551Y40300D01*
G01X-109551Y40300D02*
G01X-110319Y40900D01*
G01X-110319Y40900D02*
G01X-111044Y42100D01*
G01X-111044Y42100D02*
G01X-111428Y43300D01*
G01X-111428Y43300D02*
G01X-111428Y45100D01*
G01X-109551Y45100D02*
G01X-111428Y45100D01*
G01X-120048Y48700D02*
G01X-120048Y40300D01*
G01X-120048Y46900D02*
G01X-119195Y48100D01*
G01X-119195Y48100D02*
G01X-118341Y48700D01*
G01X-118341Y48700D02*
G01X-117061Y48700D01*
G01X-117061Y48700D02*
G01X-116208Y48100D01*
G01X-116208Y48100D02*
G01X-115355Y46900D01*
G01X-115355Y46900D02*
G01X-114928Y45100D01*
G01X-114928Y45100D02*
G01X-114928Y43900D01*
G01X-114928Y43900D02*
G01X-115355Y42100D01*
G01X-115355Y42100D02*
G01X-116208Y40900D01*
G01X-116208Y40900D02*
G01X-117061Y40300D01*
G01X-117061Y40300D02*
G01X-118341Y40300D01*
G01X-118341Y40300D02*
G01X-119195Y40900D01*
G01X-119195Y40900D02*
G01X-120048Y42100D01*
G01X-124828Y52900D02*
G01X-124828Y42700D01*
G01X-124828Y42700D02*
G01X-125255Y40900D01*
G01X-125255Y40900D02*
G01X-126108Y40300D01*
G01X-126108Y40300D02*
G01X-126961Y40300D01*
G01X-123548Y48700D02*
G01X-126535Y48700D01*
G01X-130461Y45100D02*
G01X-135581Y45100D01*
G01X-135581Y45100D02*
G01X-135581Y46300D01*
G01X-135581Y46300D02*
G01X-135155Y47500D01*
G01X-135155Y47500D02*
G01X-134728Y48100D01*
G01X-134728Y48100D02*
G01X-133875Y48700D01*
G01X-133875Y48700D02*
G01X-132595Y48700D01*
G01X-132595Y48700D02*
G01X-131741Y48100D01*
G01X-131741Y48100D02*
G01X-130888Y46900D01*
G01X-130888Y46900D02*
G01X-130461Y45100D01*
G01X-130461Y45100D02*
G01X-130461Y43900D01*
G01X-130461Y43900D02*
G01X-130888Y42100D01*
G01X-130888Y42100D02*
G01X-131741Y40900D01*
G01X-131741Y40900D02*
G01X-132595Y40300D01*
G01X-132595Y40300D02*
G01X-133875Y40300D01*
G01X-133875Y40300D02*
G01X-134728Y40900D01*
G01X-134728Y40900D02*
G01X-135581Y42100D01*
G01X-139081Y48700D02*
G01X-140575Y40300D01*
G01X-142068Y48700D02*
G01X-140575Y40300D01*
G01X-142068Y48700D02*
G01X-143561Y40300D01*
G01X-145055Y48700D02*
G01X-143561Y40300D01*
G01X-153675Y48700D02*
G01X-153675Y40300D01*
G01X-153675Y46900D02*
G01X-152821Y48100D01*
G01X-152821Y48100D02*
G01X-151968Y48700D01*
G01X-151968Y48700D02*
G01X-150688Y48700D01*
G01X-150688Y48700D02*
G01X-149835Y48100D01*
G01X-149835Y48100D02*
G01X-148981Y46900D01*
G01X-148981Y46900D02*
G01X-148555Y45100D01*
G01X-148555Y45100D02*
G01X-148555Y43900D01*
G01X-148555Y43900D02*
G01X-148981Y42100D01*
G01X-148981Y42100D02*
G01X-149835Y40900D01*
G01X-149835Y40900D02*
G01X-150688Y40300D01*
G01X-150688Y40300D02*
G01X-151968Y40300D01*
G01X-151968Y40300D02*
G01X-152821Y40900D01*
G01X-152821Y40900D02*
G01X-153675Y42100D01*
G01X-157601Y48700D02*
G01X-160161Y40300D01*
G01X-161655Y48700D02*
G01X-160161Y40300D01*
G01X-160161Y40300D02*
G01X-159308Y37900D01*
G01X-159308Y37900D02*
G01X-158455Y36700D01*
G01X-158455Y36700D02*
G01X-157601Y36100D01*
G01X-157601Y36100D02*
G01X-157175Y36100D01*
G01X-102900Y30640D02*
G01X-102900Y31120D01*
G01X-102900Y31120D02*
G01X-103256Y32080D01*
G01X-103256Y32080D02*
G01X-103611Y32560D01*
G01X-103611Y32560D02*
G01X-104322Y33040D01*
G01X-104322Y33040D02*
G01X-105744Y33040D01*
G01X-105744Y33040D02*
G01X-106456Y32560D01*
G01X-106456Y32560D02*
G01X-106811Y32080D01*
G01X-106811Y32080D02*
G01X-107167Y31120D01*
G01X-107167Y31120D02*
G01X-107167Y30160D01*
G01X-107167Y30160D02*
G01X-106811Y29200D01*
G01X-106811Y29200D02*
G01X-106100Y27760D01*
G01X-106100Y27760D02*
G01X-102544Y22960D01*
G01X-102544Y22960D02*
G01X-107522Y22960D01*
G01X-112656Y33040D02*
G01X-111589Y32560D01*
G01X-111589Y32560D02*
G01X-110878Y31120D01*
G01X-110878Y31120D02*
G01X-110522Y28720D01*
G01X-110522Y28720D02*
G01X-110522Y27280D01*
G01X-110522Y27280D02*
G01X-110878Y24880D01*
G01X-110878Y24880D02*
G01X-111589Y23440D01*
G01X-111589Y23440D02*
G01X-112656Y22960D01*
G01X-112656Y22960D02*
G01X-113367Y22960D01*
G01X-113367Y22960D02*
G01X-114433Y23440D01*
G01X-114433Y23440D02*
G01X-115144Y24880D01*
G01X-115144Y24880D02*
G01X-115500Y27280D01*
G01X-115500Y27280D02*
G01X-115500Y28720D01*
G01X-115500Y28720D02*
G01X-115144Y31120D01*
G01X-115144Y31120D02*
G01X-114433Y32560D01*
G01X-114433Y32560D02*
G01X-113367Y33040D01*
G01X-113367Y33040D02*
G01X-112656Y33040D01*
G01X-118500Y31120D02*
G01X-119211Y31600D01*
G01X-119211Y31600D02*
G01X-120278Y33040D01*
G01X-120278Y33040D02*
G01X-120278Y22960D01*
G01X-127900Y29680D02*
G01X-127544Y28240D01*
G01X-127544Y28240D02*
G01X-126833Y27280D01*
G01X-126833Y27280D02*
G01X-125767Y26800D01*
G01X-125767Y26800D02*
G01X-125411Y26800D01*
G01X-125411Y26800D02*
G01X-124344Y27280D01*
G01X-124344Y27280D02*
G01X-123633Y28240D01*
G01X-123633Y28240D02*
G01X-123278Y29680D01*
G01X-123278Y29680D02*
G01X-123278Y30160D01*
G01X-123278Y30160D02*
G01X-123633Y31600D01*
G01X-123633Y31600D02*
G01X-124344Y32560D01*
G01X-124344Y32560D02*
G01X-125411Y33040D01*
G01X-125411Y33040D02*
G01X-125767Y33040D01*
G01X-125767Y33040D02*
G01X-126833Y32560D01*
G01X-126833Y32560D02*
G01X-127544Y31600D01*
G01X-127544Y31600D02*
G01X-127900Y29680D01*
G01X-127900Y29680D02*
G01X-127544Y28240D01*
G01X-127544Y28240D02*
G01X-125589Y22960D01*
G01X-133033Y33040D02*
G01X-131967Y32560D01*
G01X-131967Y32560D02*
G01X-131256Y31120D01*
G01X-131256Y31120D02*
G01X-130900Y28720D01*
G01X-130900Y28720D02*
G01X-130900Y27280D01*
G01X-130900Y27280D02*
G01X-131256Y24880D01*
G01X-131256Y24880D02*
G01X-131967Y23440D01*
G01X-131967Y23440D02*
G01X-133033Y22960D01*
G01X-133033Y22960D02*
G01X-133744Y22960D01*
G01X-133744Y22960D02*
G01X-134811Y23440D01*
G01X-134811Y23440D02*
G01X-135522Y24880D01*
G01X-135522Y24880D02*
G01X-135878Y27280D01*
G01X-135878Y27280D02*
G01X-135878Y28720D01*
G01X-135878Y28720D02*
G01X-135522Y31120D01*
G01X-135522Y31120D02*
G01X-134811Y32560D01*
G01X-134811Y32560D02*
G01X-133744Y33040D01*
G01X-133744Y33040D02*
G01X-133033Y33040D01*
G01X-143144Y31600D02*
G01X-142789Y32560D01*
G01X-142789Y32560D02*
G01X-141722Y33040D01*
G01X-141722Y33040D02*
G01X-141011Y33040D01*
G01X-141011Y33040D02*
G01X-139944Y32560D01*
G01X-139944Y32560D02*
G01X-139233Y31120D01*
G01X-139233Y31120D02*
G01X-138878Y28720D01*
G01X-138878Y28720D02*
G01X-138878Y26320D01*
G01X-138878Y26320D02*
G01X-139233Y24400D01*
G01X-139233Y24400D02*
G01X-139944Y23440D01*
G01X-139944Y23440D02*
G01X-141011Y22960D01*
G01X-141011Y22960D02*
G01X-141367Y22960D01*
G01X-141367Y22960D02*
G01X-142433Y23440D01*
G01X-142433Y23440D02*
G01X-143144Y24400D01*
G01X-143144Y24400D02*
G01X-143500Y25840D01*
G01X-143500Y25840D02*
G01X-143500Y26320D01*
G01X-143500Y26320D02*
G01X-143144Y27760D01*
G01X-143144Y27760D02*
G01X-142433Y28720D01*
G01X-142433Y28720D02*
G01X-141367Y29200D01*
G01X-141367Y29200D02*
G01X-141011Y29200D01*
G01X-141011Y29200D02*
G01X-139944Y28720D01*
G01X-139944Y28720D02*
G01X-139233Y27760D01*
G01X-139233Y27760D02*
G01X-138878Y26320D01*
G01X-148633Y33040D02*
G01X-147567Y32560D01*
G01X-147567Y32560D02*
G01X-146856Y31120D01*
G01X-146856Y31120D02*
G01X-146500Y28720D01*
G01X-146500Y28720D02*
G01X-146500Y27280D01*
G01X-146500Y27280D02*
G01X-146856Y24880D01*
G01X-146856Y24880D02*
G01X-147567Y23440D01*
G01X-147567Y23440D02*
G01X-148633Y22960D01*
G01X-148633Y22960D02*
G01X-149344Y22960D01*
G01X-149344Y22960D02*
G01X-150411Y23440D01*
G01X-150411Y23440D02*
G01X-151122Y24880D01*
G01X-151122Y24880D02*
G01X-151478Y27280D01*
G01X-151478Y27280D02*
G01X-151478Y28720D01*
G01X-151478Y28720D02*
G01X-151122Y31120D01*
G01X-151122Y31120D02*
G01X-150411Y32560D01*
G01X-150411Y32560D02*
G01X-149344Y33040D01*
G01X-149344Y33040D02*
G01X-148633Y33040D01*
G01X-155189Y33040D02*
G01X-159100Y33040D01*
G01X-159100Y33040D02*
G01X-156967Y29200D01*
G01X-156967Y29200D02*
G01X-158033Y29200D01*
G01X-158033Y29200D02*
G01X-158744Y28720D01*
G01X-158744Y28720D02*
G01X-159100Y28240D01*
G01X-159100Y28240D02*
G01X-159456Y26800D01*
G01X-159456Y26800D02*
G01X-159456Y25840D01*
G01X-159456Y25840D02*
G01X-159100Y24400D01*
G01X-159100Y24400D02*
G01X-158389Y23440D01*
G01X-158389Y23440D02*
G01X-157322Y22960D01*
G01X-157322Y22960D02*
G01X-156256Y22960D01*
G01X-156256Y22960D02*
G01X-155189Y23440D01*
G01X-155189Y23440D02*
G01X-154833Y23920D01*
G01X-154833Y23920D02*
G01X-154478Y24880D01*
M02*
