G71*
G90*
G04 Quadcept GERBER*
%MOMM*%
%FSLAX44Y44*%
%ADD10C,0.2*%
%ADD11R,4X4*%
%ADD12R,0.6X1*%
%ADD13R,0.6X1*%
%ADD14R,0.6X1.2*%
%ADD15R,0.64X2*%
%ADD16R,0.65X1.45*%
%ADD17R,0.65X1.45*%
%ADD18R,0.8X0.9*%
%ADD19R,0.9X0.8*%
%ADD20R,0.9X1.5*%
%ADD21R,1.1X0.8*%
%ADD22R,1.1X1.8*%
%ADD23R,1.1X2.5*%
%ADD24R,1.2X1.7*%
%ADD25R,1.25X1*%
%ADD26R,1.5X0.9*%
%ADD27R,1.75X0.3*%
%ADD28R,2.15X0.4*%
%ADD29R,3.5X3*%
G54D10*
G01X-175000Y0000D02*
G01X175000Y0000D01*
G01X175000Y0000D02*
G01X175000Y560000D01*
G01X175000Y560000D02*
G01X-175000Y560000D01*
G01X-175000Y560000D02*
G01X-175000Y0000D01*
G54D11*
X-7000Y448000D03*
G54D12*
X7200Y303100D03*
X87200Y308400D03*
G54D13*
X-2300Y279100D03*
X16700Y279100D03*
X77700Y284400D03*
X96700Y284400D03*
G54D14*
X-9900Y84500D03*
X-0400Y84500D03*
X9100Y84500D03*
X9100Y107500D03*
X-0400Y107500D03*
X-9900Y107500D03*
G54D15*
X-126200Y98050D03*
X-103300Y98050D03*
X-149100Y98050D03*
G54D16*
X52950Y271450D03*
X31450Y271450D03*
X-81750Y316650D03*
X-60250Y316650D03*
G54D17*
X52950Y316950D03*
X31450Y316950D03*
X-81750Y271150D03*
X-60250Y271150D03*
G54D18*
X-153700Y149200D03*
X-153700Y134200D03*
X-94300Y138000D03*
X-94300Y123000D03*
X-102700Y287100D03*
X-102700Y302100D03*
X-41100Y88600D03*
X-41100Y103600D03*
X-69500Y227000D03*
X-69500Y212000D03*
X-134500Y149200D03*
X-134500Y134200D03*
X-115500Y149200D03*
X-115500Y134200D03*
X76500Y265100D03*
X76500Y250100D03*
X97500Y250600D03*
X97500Y265600D03*
X95700Y211900D03*
X95700Y196900D03*
G54D19*
X-109400Y233100D03*
X-94400Y233100D03*
X-21150Y312000D03*
X-36150Y312000D03*
X-21150Y293000D03*
X-36150Y293000D03*
X-21150Y274000D03*
X-36150Y274000D03*
X85200Y331800D03*
X70200Y331800D03*
X116050Y151050D03*
X101050Y151050D03*
X116050Y170800D03*
X101050Y170800D03*
X116050Y131700D03*
X101050Y131700D03*
X153350Y131700D03*
X138350Y131700D03*
X153350Y151050D03*
X138350Y151050D03*
X153350Y170800D03*
X138350Y170800D03*
G54D20*
X-44300Y353000D03*
X-31600Y353000D03*
X-18900Y353000D03*
X-6200Y353000D03*
X6500Y353000D03*
X19200Y353000D03*
X31900Y353000D03*
X44600Y353000D03*
X57300Y353000D03*
X-57000Y353000D03*
G54D21*
X40100Y83400D03*
G54D22*
X40100Y102400D03*
G54D23*
X35000Y53700D03*
X10000Y53700D03*
X-10000Y53700D03*
X-35000Y53700D03*
G54D24*
X-116300Y207600D03*
X-89300Y207600D03*
G54D25*
X-95200Y158400D03*
X-95200Y178400D03*
G54D26*
X-92000Y496900D03*
X-92000Y484200D03*
X-92000Y471500D03*
X-92000Y458800D03*
X-92000Y446100D03*
X-92000Y433400D03*
X-92000Y408000D03*
X-92000Y395300D03*
X-92000Y382600D03*
X-92000Y369900D03*
X92000Y382600D03*
X92000Y458800D03*
X-92000Y522300D03*
X-92000Y509600D03*
X-92000Y420700D03*
X92000Y369900D03*
X92000Y395300D03*
X92000Y408000D03*
X92000Y420700D03*
X92000Y433400D03*
X92000Y446100D03*
X92000Y471500D03*
X92000Y484200D03*
X92000Y496900D03*
X92000Y509600D03*
X92000Y522300D03*
X-92000Y535000D03*
X92000Y535000D03*
G54D27*
X29200Y191850D03*
X29200Y204850D03*
X29200Y211350D03*
X29200Y217850D03*
X29200Y224350D03*
X29200Y230850D03*
X29200Y237350D03*
X29200Y243850D03*
X-42800Y217850D03*
X-42800Y185350D03*
X-42800Y165850D03*
X-42800Y159350D03*
X29200Y159350D03*
X29200Y165850D03*
X29200Y172350D03*
X29200Y185350D03*
X-42800Y243850D03*
X-42800Y237350D03*
X-42800Y230850D03*
X-42800Y198350D03*
X-42800Y191850D03*
X29200Y198350D03*
X-42800Y224350D03*
X-42800Y204850D03*
X-42800Y178850D03*
X-42800Y172350D03*
X-42800Y211350D03*
X29200Y178850D03*
G54D28*
X121900Y37500D03*
X121900Y44000D03*
X121900Y50500D03*
X121900Y57000D03*
X121900Y63500D03*
G54D29*
X-126200Y30150D03*
M02*
