G71*
G90*
G04 Quadcept GERBER*
%MOMM*%
%FSLAX44Y44*%
%ADD10C,0.2*%
%ADD11C,0.8*%
%ADD12C,2.2*%
%ADD13C,2.5*%
%ADD14O,1.6X1.05*%
%ADD15O,1.7X3*%
%ADD16R,0.55X1.35*%
%ADD17R,0.55X1.35*%
%ADD18R,1X1.1*%
%ADD19R,1.1X1*%
%ADD20R,1.3X1.1*%
%ADD21R,1.3X3.6*%
%ADD22R,1.9X1.4*%
%ADD23R,2.3X1.15*%
%ADD24R,2.5X1.6*%
%ADD25R,3.6X1.3*%
G54D10*
G01X-175000Y0000D02*
G01X175000Y0000D01*
G01X175000Y0000D02*
G01X175000Y560000D01*
G01X175000Y560000D02*
G01X-175000Y560000D01*
G01X-175000Y560000D02*
G01X-175000Y0000D01*
G54D11*
X-22500Y26200D03*
X22500Y26200D03*
G54D12*
X140000Y209300D03*
X140000Y234700D03*
X140000Y260100D03*
X140000Y285500D03*
X140000Y310900D03*
X140000Y336300D03*
X140000Y527800D03*
X140000Y477000D03*
X140000Y451600D03*
X140000Y426200D03*
X140000Y400800D03*
X140000Y375400D03*
X140000Y502400D03*
X-140000Y456100D03*
X-140000Y430700D03*
X-140000Y379900D03*
X-140000Y354500D03*
X-140000Y329100D03*
X-140000Y303700D03*
X-140000Y405300D03*
X-140000Y248500D03*
X-140000Y223100D03*
X-140000Y197700D03*
G54D13*
X140000Y104500D03*
X-140000Y485500D03*
G54D14*
X119000Y14750D03*
X153500Y14750D03*
X119000Y86250D03*
X153500Y86250D03*
G54D15*
X-58500Y26200D03*
X58500Y26200D03*
G54D16*
X20700Y489950D03*
X40700Y489950D03*
X30700Y489950D03*
G54D17*
X20700Y523450D03*
X30700Y523450D03*
X40700Y523450D03*
G54D18*
X-53000Y518750D03*
X-53000Y503750D03*
X-94200Y109400D03*
X-94200Y94400D03*
X105400Y525600D03*
X105400Y510600D03*
G54D19*
X-94950Y495000D03*
X-79950Y495000D03*
X-80200Y519500D03*
X-95200Y519500D03*
X64900Y490700D03*
X79900Y490700D03*
X64900Y524700D03*
X79900Y524700D03*
G54D20*
X-128900Y528150D03*
G54D21*
X24000Y179900D03*
X6000Y179900D03*
X-12000Y179900D03*
X42000Y179900D03*
X-30000Y179900D03*
X42000Y409900D03*
X60000Y179900D03*
X-30000Y409900D03*
X-12000Y409900D03*
X6000Y409900D03*
X24000Y409900D03*
X60000Y409900D03*
G54D22*
X-125200Y116800D03*
X-125200Y89800D03*
G54D23*
X-144900Y513400D03*
X-144900Y542900D03*
G54D24*
X30700Y506700D03*
G54D25*
X90000Y366900D03*
X90000Y348900D03*
X90000Y330900D03*
X90000Y312900D03*
X90000Y258900D03*
X90000Y240900D03*
X-60000Y204900D03*
X-60000Y222900D03*
X-60000Y240900D03*
X-60000Y330900D03*
X-60000Y348900D03*
X-60000Y366900D03*
X90000Y294900D03*
X90000Y276900D03*
X90000Y222900D03*
X90000Y204900D03*
X-60000Y276900D03*
X-60000Y294900D03*
X-60000Y312900D03*
X90000Y384900D03*
X-60000Y258900D03*
X-60000Y384900D03*
M02*
