G71*
G90*
G04 Quadcept GERBER*
%MOMM*%
%FSLAX44Y44*%
%ADD10C,0.2*%
%ADD11R,0.4X1*%
%ADD12R,0.4X1*%
%ADD13R,0.8X0.9*%
%ADD14R,0.9X0.8*%
%ADD15R,1.2X1*%
%ADD16R,1.2X3.5*%
%ADD17R,1.7X1.2*%
%ADD18R,2.2X1.05*%
%ADD19R,2.5X1.6*%
%ADD20R,3.5X1.2*%
G54D10*
G01X-175000Y0000D02*
G01X175000Y0000D01*
G01X175000Y0000D02*
G01X175000Y560000D01*
G01X175000Y560000D02*
G01X-175000Y560000D01*
G01X-175000Y560000D02*
G01X-175000Y0000D01*
G54D11*
X20700Y489950D03*
X40700Y489950D03*
X30700Y489950D03*
G54D12*
X20700Y523450D03*
X30700Y523450D03*
X40700Y523450D03*
G54D13*
X-53000Y518750D03*
X-53000Y503750D03*
X-94200Y109400D03*
X-94200Y94400D03*
X105400Y525600D03*
X105400Y510600D03*
G54D14*
X-94950Y495000D03*
X-79950Y495000D03*
X-80200Y519500D03*
X-95200Y519500D03*
X64900Y490700D03*
X79900Y490700D03*
X64900Y524700D03*
X79900Y524700D03*
G54D15*
X-128900Y528150D03*
G54D16*
X24000Y179900D03*
X6000Y179900D03*
X-12000Y179900D03*
X42000Y179900D03*
X-30000Y179900D03*
X42000Y409900D03*
X60000Y179900D03*
X-30000Y409900D03*
X-12000Y409900D03*
X6000Y409900D03*
X24000Y409900D03*
X60000Y409900D03*
G54D17*
X-125200Y116800D03*
X-125200Y89800D03*
G54D18*
X-144900Y513400D03*
X-144900Y542900D03*
G54D19*
X30700Y506700D03*
G54D20*
X90000Y366900D03*
X90000Y348900D03*
X90000Y330900D03*
X90000Y312900D03*
X90000Y258900D03*
X90000Y240900D03*
X-60000Y204900D03*
X-60000Y222900D03*
X-60000Y240900D03*
X-60000Y330900D03*
X-60000Y348900D03*
X-60000Y366900D03*
X90000Y294900D03*
X90000Y276900D03*
X90000Y222900D03*
X90000Y204900D03*
X-60000Y276900D03*
X-60000Y294900D03*
X-60000Y312900D03*
X90000Y384900D03*
X-60000Y258900D03*
X-60000Y384900D03*
M02*
