G71*
G90*
G04 Quadcept GERBER*
%MOMM*%
%FSLAX44Y44*%
%ADD10C,0*%
%ADD11C,0.1*%
%ADD12C,0.15*%
%ADD13C,0.2*%
G54D10*
G75*
G36*
G01X11810Y158301D02*
G01X11775Y158702D01*
G01X11705Y159099D01*
G01X11601Y159488D01*
G01X11463Y159866D01*
G01X11293Y160231D01*
G01X11092Y160579D01*
G01X10861Y160909D01*
G01X10602Y161217D01*
G01X10317Y161502D01*
G01X10009Y161761D01*
G01X9679Y161992D01*
G01X9331Y162193D01*
G01X8966Y162363D01*
G01X8588Y162501D01*
G01X8199Y162605D01*
G01X7802Y162675D01*
G01X7401Y162710D01*
G01X6999Y162710D01*
G01X6598Y162675D01*
G01X6201Y162605D01*
G01X5812Y162501D01*
G01X5434Y162363D01*
G01X5069Y162193D01*
G01X4721Y161992D01*
G01X4391Y161761D01*
G01X4083Y161502D01*
G01X3798Y161217D01*
G01X3539Y160909D01*
G01X3308Y160579D01*
G01X3107Y160231D01*
G01X2937Y159866D01*
G01X2799Y159488D01*
G01X2695Y159099D01*
G01X2625Y158702D01*
G01X2590Y158301D01*
G01X2590Y157899D01*
G01X2625Y157498D01*
G01X2695Y157101D01*
G01X2799Y156712D01*
G01X2937Y156334D01*
G01X3107Y155969D01*
G01X3308Y155621D01*
G01X3539Y155291D01*
G01X3798Y154983D01*
G01X4083Y154698D01*
G01X4391Y154439D01*
G01X4721Y154208D01*
G01X5069Y154007D01*
G01X5434Y153837D01*
G01X5812Y153699D01*
G01X6201Y153595D01*
G01X6598Y153525D01*
G01X6999Y153490D01*
G01X7401Y153490D01*
G01X7802Y153525D01*
G01X8199Y153595D01*
G01X8588Y153699D01*
G01X8966Y153837D01*
G01X9331Y154007D01*
G01X9679Y154208D01*
G01X10009Y154439D01*
G01X10317Y154698D01*
G01X10602Y154983D01*
G01X10861Y155291D01*
G01X11092Y155621D01*
G01X11293Y155969D01*
G01X11463Y156334D01*
G01X11601Y156712D01*
G01X11705Y157101D01*
G01X11775Y157498D01*
G01X11810Y157899D01*
G01X11810Y158301D01*
G37*
G54D11*
G01X26700Y271200D02*
G01X26700Y317200D01*
G01X26700Y317200D02*
G01X58200Y317200D01*
G01X58200Y271200D02*
G01X26700Y271200D01*
G01X58200Y317200D02*
G01X58200Y271200D01*
G01X-55500Y316900D02*
G01X-55500Y270900D01*
G01X-55500Y270900D02*
G01X-87000Y270900D01*
G01X-87000Y316900D02*
G01X-55500Y316900D01*
G01X-87000Y270900D02*
G01X-87000Y316900D01*
G01X170000Y30000D02*
G01X170000Y41000D01*
G01X170000Y41000D02*
G01X160000Y41000D01*
G01X160000Y41000D02*
G01X160000Y30000D01*
G01X160000Y30000D02*
G01X170000Y30000D01*
G01X170000Y60000D02*
G01X170000Y71000D01*
G01X170000Y71000D02*
G01X160000Y71000D01*
G01X160000Y71000D02*
G01X160000Y60000D01*
G01X160000Y60000D02*
G01X170000Y60000D01*
G54D12*
G01X-156200Y166640D02*
G01X-157000Y166320D01*
G01X-157000Y166320D02*
G01X-157800Y165716D01*
G01X-157800Y165716D02*
G01X-158200Y165076D01*
G01X-158200Y165076D02*
G01X-158200Y163831D01*
G01X-158200Y163831D02*
G01X-157800Y163227D01*
G01X-157800Y163227D02*
G01X-157000Y162587D01*
G01X-157000Y162587D02*
G01X-156200Y162302D01*
G01X-156200Y162302D02*
G01X-155000Y161982D01*
G01X-155000Y161982D02*
G01X-153000Y161982D01*
G01X-153000Y161982D02*
G01X-151800Y162302D01*
G01X-151800Y162302D02*
G01X-151000Y162587D01*
G01X-151000Y162587D02*
G01X-150200Y163227D01*
G01X-150200Y163227D02*
G01X-149800Y163831D01*
G01X-149800Y163831D02*
G01X-149800Y165076D01*
G01X-149800Y165076D02*
G01X-150200Y165716D01*
G01X-150200Y165716D02*
G01X-151000Y166320D01*
G01X-151000Y166320D02*
G01X-151800Y166640D01*
G01X-156600Y169640D02*
G01X-157000Y170351D01*
G01X-157000Y170351D02*
G01X-158200Y171418D01*
G01X-158200Y171418D02*
G01X-149800Y171418D01*
G01X-79450Y129340D02*
G01X-80250Y129020D01*
G01X-80250Y129020D02*
G01X-81050Y128416D01*
G01X-81050Y128416D02*
G01X-81450Y127776D01*
G01X-81450Y127776D02*
G01X-81450Y126531D01*
G01X-81450Y126531D02*
G01X-81050Y125927D01*
G01X-81050Y125927D02*
G01X-80250Y125287D01*
G01X-80250Y125287D02*
G01X-79450Y125002D01*
G01X-79450Y125002D02*
G01X-78250Y124682D01*
G01X-78250Y124682D02*
G01X-76250Y124682D01*
G01X-76250Y124682D02*
G01X-75050Y125002D01*
G01X-75050Y125002D02*
G01X-74250Y125287D01*
G01X-74250Y125287D02*
G01X-73450Y125927D01*
G01X-73450Y125927D02*
G01X-73050Y126531D01*
G01X-73050Y126531D02*
G01X-73050Y127776D01*
G01X-73050Y127776D02*
G01X-73450Y128416D01*
G01X-73450Y128416D02*
G01X-74250Y129020D01*
G01X-74250Y129020D02*
G01X-75050Y129340D01*
G01X-79450Y132696D02*
G01X-79850Y132696D01*
G01X-79850Y132696D02*
G01X-80650Y133051D01*
G01X-80650Y133051D02*
G01X-81050Y133407D01*
G01X-81050Y133407D02*
G01X-81450Y134118D01*
G01X-81450Y134118D02*
G01X-81450Y135540D01*
G01X-81450Y135540D02*
G01X-81050Y136251D01*
G01X-81050Y136251D02*
G01X-80650Y136607D01*
G01X-80650Y136607D02*
G01X-79850Y136962D01*
G01X-79850Y136962D02*
G01X-79050Y136962D01*
G01X-79050Y136962D02*
G01X-78250Y136607D01*
G01X-78250Y136607D02*
G01X-77050Y135896D01*
G01X-77050Y135896D02*
G01X-73050Y132340D01*
G01X-73050Y132340D02*
G01X-73050Y137318D01*
G01X-119160Y189200D02*
G01X-119480Y190000D01*
G01X-119480Y190000D02*
G01X-120084Y190800D01*
G01X-120084Y190800D02*
G01X-120724Y191200D01*
G01X-120724Y191200D02*
G01X-121969Y191200D01*
G01X-121969Y191200D02*
G01X-122573Y190800D01*
G01X-122573Y190800D02*
G01X-123213Y190000D01*
G01X-123213Y190000D02*
G01X-123498Y189200D01*
G01X-123498Y189200D02*
G01X-123818Y188000D01*
G01X-123818Y188000D02*
G01X-123818Y186000D01*
G01X-123818Y186000D02*
G01X-123498Y184800D01*
G01X-123498Y184800D02*
G01X-123213Y184000D01*
G01X-123213Y184000D02*
G01X-122573Y183200D01*
G01X-122573Y183200D02*
G01X-121969Y182800D01*
G01X-121969Y182800D02*
G01X-120724Y182800D01*
G01X-120724Y182800D02*
G01X-120084Y183200D01*
G01X-120084Y183200D02*
G01X-119480Y184000D01*
G01X-119480Y184000D02*
G01X-119160Y184800D01*
G01X-115449Y191200D02*
G01X-111538Y191200D01*
G01X-111538Y191200D02*
G01X-113671Y188000D01*
G01X-113671Y188000D02*
G01X-112604Y188000D01*
G01X-112604Y188000D02*
G01X-111893Y187600D01*
G01X-111893Y187600D02*
G01X-111538Y187200D01*
G01X-111538Y187200D02*
G01X-111182Y186000D01*
G01X-111182Y186000D02*
G01X-111182Y185200D01*
G01X-111182Y185200D02*
G01X-111538Y184000D01*
G01X-111538Y184000D02*
G01X-112249Y183200D01*
G01X-112249Y183200D02*
G01X-113316Y182800D01*
G01X-113316Y182800D02*
G01X-114382Y182800D01*
G01X-114382Y182800D02*
G01X-115449Y183200D01*
G01X-115449Y183200D02*
G01X-115804Y183600D01*
G01X-115804Y183600D02*
G01X-116160Y184400D01*
G01X-104900Y249850D02*
G01X-105220Y250650D01*
G01X-105220Y250650D02*
G01X-105824Y251450D01*
G01X-105824Y251450D02*
G01X-106464Y251850D01*
G01X-106464Y251850D02*
G01X-107709Y251850D01*
G01X-107709Y251850D02*
G01X-108313Y251450D01*
G01X-108313Y251450D02*
G01X-108953Y250650D01*
G01X-108953Y250650D02*
G01X-109238Y249850D01*
G01X-109238Y249850D02*
G01X-109558Y248650D01*
G01X-109558Y248650D02*
G01X-109558Y246650D01*
G01X-109558Y246650D02*
G01X-109238Y245450D01*
G01X-109238Y245450D02*
G01X-108953Y244650D01*
G01X-108953Y244650D02*
G01X-108313Y243850D01*
G01X-108313Y243850D02*
G01X-107709Y243450D01*
G01X-107709Y243450D02*
G01X-106464Y243450D01*
G01X-106464Y243450D02*
G01X-105824Y243850D01*
G01X-105824Y243850D02*
G01X-105220Y244650D01*
G01X-105220Y244650D02*
G01X-104900Y245450D01*
G01X-98273Y251850D02*
G01X-101900Y245983D01*
G01X-101900Y245983D02*
G01X-97242Y245983D01*
G01X-98273Y251850D02*
G01X-98273Y243450D01*
G01X-120450Y292440D02*
G01X-121250Y292120D01*
G01X-121250Y292120D02*
G01X-122050Y291516D01*
G01X-122050Y291516D02*
G01X-122450Y290876D01*
G01X-122450Y290876D02*
G01X-122450Y289631D01*
G01X-122450Y289631D02*
G01X-122050Y289027D01*
G01X-122050Y289027D02*
G01X-121250Y288387D01*
G01X-121250Y288387D02*
G01X-120450Y288102D01*
G01X-120450Y288102D02*
G01X-119250Y287782D01*
G01X-119250Y287782D02*
G01X-117250Y287782D01*
G01X-117250Y287782D02*
G01X-116050Y288102D01*
G01X-116050Y288102D02*
G01X-115250Y288387D01*
G01X-115250Y288387D02*
G01X-114450Y289027D01*
G01X-114450Y289027D02*
G01X-114050Y289631D01*
G01X-114050Y289631D02*
G01X-114050Y290876D01*
G01X-114050Y290876D02*
G01X-114450Y291516D01*
G01X-114450Y291516D02*
G01X-115250Y292120D01*
G01X-115250Y292120D02*
G01X-116050Y292440D01*
G01X-122450Y299707D02*
G01X-122450Y296151D01*
G01X-122450Y296151D02*
G01X-118850Y295796D01*
G01X-118850Y295796D02*
G01X-119250Y296151D01*
G01X-119250Y296151D02*
G01X-119650Y297218D01*
G01X-119650Y297218D02*
G01X-119650Y298284D01*
G01X-119650Y298284D02*
G01X-119250Y299351D01*
G01X-119250Y299351D02*
G01X-118450Y300062D01*
G01X-118450Y300062D02*
G01X-117250Y300418D01*
G01X-117250Y300418D02*
G01X-116450Y300418D01*
G01X-116450Y300418D02*
G01X-115250Y300062D01*
G01X-115250Y300062D02*
G01X-114450Y299351D01*
G01X-114450Y299351D02*
G01X-114050Y298284D01*
G01X-114050Y298284D02*
G01X-114050Y297218D01*
G01X-114050Y297218D02*
G01X-114450Y296151D01*
G01X-114450Y296151D02*
G01X-114850Y295796D01*
G01X-114850Y295796D02*
G01X-115650Y295440D01*
G01X-44971Y121150D02*
G01X-45291Y121950D01*
G01X-45291Y121950D02*
G01X-45896Y122750D01*
G01X-45896Y122750D02*
G01X-46536Y123150D01*
G01X-46536Y123150D02*
G01X-47780Y123150D01*
G01X-47780Y123150D02*
G01X-48384Y122750D01*
G01X-48384Y122750D02*
G01X-49024Y121950D01*
G01X-49024Y121950D02*
G01X-49309Y121150D01*
G01X-49309Y121150D02*
G01X-49629Y119950D01*
G01X-49629Y119950D02*
G01X-49629Y117950D01*
G01X-49629Y117950D02*
G01X-49309Y116750D01*
G01X-49309Y116750D02*
G01X-49024Y115950D01*
G01X-49024Y115950D02*
G01X-48384Y115150D01*
G01X-48384Y115150D02*
G01X-47780Y114750D01*
G01X-47780Y114750D02*
G01X-46536Y114750D01*
G01X-46536Y114750D02*
G01X-45896Y115150D01*
G01X-45896Y115150D02*
G01X-45291Y115950D01*
G01X-45291Y115950D02*
G01X-44971Y116750D01*
G01X-41971Y121550D02*
G01X-41260Y121950D01*
G01X-41260Y121950D02*
G01X-40193Y123150D01*
G01X-40193Y123150D02*
G01X-40193Y114750D01*
G01X-32927Y121950D02*
G01X-33282Y122750D01*
G01X-33282Y122750D02*
G01X-34349Y123150D01*
G01X-34349Y123150D02*
G01X-35060Y123150D01*
G01X-35060Y123150D02*
G01X-36127Y122750D01*
G01X-36127Y122750D02*
G01X-36838Y121550D01*
G01X-36838Y121550D02*
G01X-37193Y119550D01*
G01X-37193Y119550D02*
G01X-37193Y117550D01*
G01X-37193Y117550D02*
G01X-36838Y115950D01*
G01X-36838Y115950D02*
G01X-36127Y115150D01*
G01X-36127Y115150D02*
G01X-35060Y114750D01*
G01X-35060Y114750D02*
G01X-34704Y114750D01*
G01X-34704Y114750D02*
G01X-33638Y115150D01*
G01X-33638Y115150D02*
G01X-32927Y115950D01*
G01X-32927Y115950D02*
G01X-32571Y117150D01*
G01X-32571Y117150D02*
G01X-32571Y117550D01*
G01X-32571Y117550D02*
G01X-32927Y118750D01*
G01X-32927Y118750D02*
G01X-33638Y119550D01*
G01X-33638Y119550D02*
G01X-34704Y119950D01*
G01X-34704Y119950D02*
G01X-35060Y119950D01*
G01X-35060Y119950D02*
G01X-36127Y119550D01*
G01X-36127Y119550D02*
G01X-36838Y118750D01*
G01X-36838Y118750D02*
G01X-37193Y117550D01*
G01X-73549Y244750D02*
G01X-73869Y245550D01*
G01X-73869Y245550D02*
G01X-74473Y246350D01*
G01X-74473Y246350D02*
G01X-75113Y246750D01*
G01X-75113Y246750D02*
G01X-76358Y246750D01*
G01X-76358Y246750D02*
G01X-76962Y246350D01*
G01X-76962Y246350D02*
G01X-77602Y245550D01*
G01X-77602Y245550D02*
G01X-77887Y244750D01*
G01X-77887Y244750D02*
G01X-78207Y243550D01*
G01X-78207Y243550D02*
G01X-78207Y241550D01*
G01X-78207Y241550D02*
G01X-77887Y240350D01*
G01X-77887Y240350D02*
G01X-77602Y239550D01*
G01X-77602Y239550D02*
G01X-76962Y238750D01*
G01X-76962Y238750D02*
G01X-76358Y238350D01*
G01X-76358Y238350D02*
G01X-75113Y238350D01*
G01X-75113Y238350D02*
G01X-74473Y238750D01*
G01X-74473Y238750D02*
G01X-73869Y239550D01*
G01X-73869Y239550D02*
G01X-73549Y240350D01*
G01X-70549Y245150D02*
G01X-69838Y245550D01*
G01X-69838Y245550D02*
G01X-68771Y246750D01*
G01X-68771Y246750D02*
G01X-68771Y238350D01*
G01X-60793Y246750D02*
G01X-64349Y238350D01*
G01X-65771Y246750D02*
G01X-60793Y246750D01*
G01X-136750Y165151D02*
G01X-137550Y164831D01*
G01X-137550Y164831D02*
G01X-138350Y164227D01*
G01X-138350Y164227D02*
G01X-138750Y163587D01*
G01X-138750Y163587D02*
G01X-138750Y162342D01*
G01X-138750Y162342D02*
G01X-138350Y161738D01*
G01X-138350Y161738D02*
G01X-137550Y161098D01*
G01X-137550Y161098D02*
G01X-136750Y160813D01*
G01X-136750Y160813D02*
G01X-135550Y160493D01*
G01X-135550Y160493D02*
G01X-133550Y160493D01*
G01X-133550Y160493D02*
G01X-132350Y160813D01*
G01X-132350Y160813D02*
G01X-131550Y161098D01*
G01X-131550Y161098D02*
G01X-130750Y161738D01*
G01X-130750Y161738D02*
G01X-130350Y162342D01*
G01X-130350Y162342D02*
G01X-130350Y163587D01*
G01X-130350Y163587D02*
G01X-130750Y164227D01*
G01X-130750Y164227D02*
G01X-131550Y164831D01*
G01X-131550Y164831D02*
G01X-132350Y165151D01*
G01X-137150Y168151D02*
G01X-137550Y168862D01*
G01X-137550Y168862D02*
G01X-138750Y169929D01*
G01X-138750Y169929D02*
G01X-130350Y169929D01*
G01X-138750Y174707D02*
G01X-138350Y173640D01*
G01X-138350Y173640D02*
G01X-137550Y173284D01*
G01X-137550Y173284D02*
G01X-136750Y173284D01*
G01X-136750Y173284D02*
G01X-135950Y173640D01*
G01X-135950Y173640D02*
G01X-135550Y174351D01*
G01X-135550Y174351D02*
G01X-135150Y175773D01*
G01X-135150Y175773D02*
G01X-134750Y176840D01*
G01X-134750Y176840D02*
G01X-133950Y177551D01*
G01X-133950Y177551D02*
G01X-133150Y177907D01*
G01X-133150Y177907D02*
G01X-131950Y177907D01*
G01X-131950Y177907D02*
G01X-131150Y177551D01*
G01X-131150Y177551D02*
G01X-130750Y177196D01*
G01X-130750Y177196D02*
G01X-130350Y176129D01*
G01X-130350Y176129D02*
G01X-130350Y174707D01*
G01X-130350Y174707D02*
G01X-130750Y173640D01*
G01X-130750Y173640D02*
G01X-131150Y173284D01*
G01X-131150Y173284D02*
G01X-131950Y172929D01*
G01X-131950Y172929D02*
G01X-133150Y172929D01*
G01X-133150Y172929D02*
G01X-133950Y173284D01*
G01X-133950Y173284D02*
G01X-134750Y173996D01*
G01X-134750Y173996D02*
G01X-135150Y175062D01*
G01X-135150Y175062D02*
G01X-135550Y176484D01*
G01X-135550Y176484D02*
G01X-135950Y177196D01*
G01X-135950Y177196D02*
G01X-136750Y177551D01*
G01X-136750Y177551D02*
G01X-137550Y177551D01*
G01X-137550Y177551D02*
G01X-138350Y177196D01*
G01X-138350Y177196D02*
G01X-138750Y176129D01*
G01X-138750Y176129D02*
G01X-138750Y174707D01*
G01X-117750Y164329D02*
G01X-118550Y164009D01*
G01X-118550Y164009D02*
G01X-119350Y163404D01*
G01X-119350Y163404D02*
G01X-119750Y162764D01*
G01X-119750Y162764D02*
G01X-119750Y161520D01*
G01X-119750Y161520D02*
G01X-119350Y160916D01*
G01X-119350Y160916D02*
G01X-118550Y160276D01*
G01X-118550Y160276D02*
G01X-117750Y159991D01*
G01X-117750Y159991D02*
G01X-116550Y159671D01*
G01X-116550Y159671D02*
G01X-114550Y159671D01*
G01X-114550Y159671D02*
G01X-113350Y159991D01*
G01X-113350Y159991D02*
G01X-112550Y160276D01*
G01X-112550Y160276D02*
G01X-111750Y160916D01*
G01X-111750Y160916D02*
G01X-111350Y161520D01*
G01X-111350Y161520D02*
G01X-111350Y162764D01*
G01X-111350Y162764D02*
G01X-111750Y163404D01*
G01X-111750Y163404D02*
G01X-112550Y164009D01*
G01X-112550Y164009D02*
G01X-113350Y164329D01*
G01X-118150Y167329D02*
G01X-118550Y168040D01*
G01X-118550Y168040D02*
G01X-119750Y169107D01*
G01X-119750Y169107D02*
G01X-111350Y169107D01*
G01X-116950Y176729D02*
G01X-115750Y176373D01*
G01X-115750Y176373D02*
G01X-114950Y175662D01*
G01X-114950Y175662D02*
G01X-114550Y174596D01*
G01X-114550Y174596D02*
G01X-114550Y174240D01*
G01X-114550Y174240D02*
G01X-114950Y173173D01*
G01X-114950Y173173D02*
G01X-115750Y172462D01*
G01X-115750Y172462D02*
G01X-116950Y172107D01*
G01X-116950Y172107D02*
G01X-117350Y172107D01*
G01X-117350Y172107D02*
G01X-118550Y172462D01*
G01X-118550Y172462D02*
G01X-119350Y173173D01*
G01X-119350Y173173D02*
G01X-119750Y174240D01*
G01X-119750Y174240D02*
G01X-119750Y174596D01*
G01X-119750Y174596D02*
G01X-119350Y175662D01*
G01X-119350Y175662D02*
G01X-118550Y176373D01*
G01X-118550Y176373D02*
G01X-116950Y176729D01*
G01X-116950Y176729D02*
G01X-115750Y176373D01*
G01X-115750Y176373D02*
G01X-111350Y174418D01*
G01X50577Y90292D02*
G01X58977Y90292D01*
G01X50577Y90292D02*
G01X50577Y92781D01*
G01X50577Y92781D02*
G01X50977Y93848D01*
G01X50977Y93848D02*
G01X51777Y94559D01*
G01X51777Y94559D02*
G01X52577Y94914D01*
G01X52577Y94914D02*
G01X53777Y95270D01*
G01X53777Y95270D02*
G01X55777Y95270D01*
G01X55777Y95270D02*
G01X56977Y94914D01*
G01X56977Y94914D02*
G01X57777Y94559D01*
G01X57777Y94559D02*
G01X58577Y93848D01*
G01X58577Y93848D02*
G01X58977Y92781D01*
G01X58977Y92781D02*
G01X58977Y90292D01*
G01X52177Y98270D02*
G01X51777Y98981D01*
G01X51777Y98981D02*
G01X50577Y100048D01*
G01X50577Y100048D02*
G01X58977Y100048D01*
G01X-80850Y160711D02*
G01X-72450Y160711D01*
G01X-80850Y160711D02*
G01X-80850Y165333D01*
G01X-76850Y160711D02*
G01X-76850Y163556D01*
G01X-80850Y168333D02*
G01X-72450Y168333D01*
G01X-80850Y168333D02*
G01X-80850Y171533D01*
G01X-80850Y171533D02*
G01X-80450Y172600D01*
G01X-80450Y172600D02*
G01X-80050Y172956D01*
G01X-80050Y172956D02*
G01X-79250Y173311D01*
G01X-79250Y173311D02*
G01X-78450Y173311D01*
G01X-78450Y173311D02*
G01X-77650Y172956D01*
G01X-77650Y172956D02*
G01X-77250Y172600D01*
G01X-77250Y172600D02*
G01X-76850Y171533D01*
G01X-76850Y168333D02*
G01X-76850Y171533D01*
G01X-76850Y171533D02*
G01X-76450Y172600D01*
G01X-76450Y172600D02*
G01X-76050Y172956D01*
G01X-76050Y172956D02*
G01X-75250Y173311D01*
G01X-75250Y173311D02*
G01X-74050Y173311D01*
G01X-74050Y173311D02*
G01X-73250Y172956D01*
G01X-73250Y172956D02*
G01X-72850Y172600D01*
G01X-72850Y172600D02*
G01X-72450Y171533D01*
G01X-72450Y171533D02*
G01X-72450Y168333D01*
G01X-79250Y176311D02*
G01X-79650Y177022D01*
G01X-79650Y177022D02*
G01X-80850Y178089D01*
G01X-80850Y178089D02*
G01X-72450Y178089D01*
G01X34822Y337900D02*
G01X34822Y329500D01*
G01X34822Y337900D02*
G01X38022Y337900D01*
G01X38022Y337900D02*
G01X39089Y337500D01*
G01X39089Y337500D02*
G01X39444Y337100D01*
G01X39444Y337100D02*
G01X39800Y336300D01*
G01X39800Y336300D02*
G01X39800Y335100D01*
G01X39800Y335100D02*
G01X39444Y334300D01*
G01X39444Y334300D02*
G01X39089Y333900D01*
G01X39089Y333900D02*
G01X38022Y333500D01*
G01X38022Y333500D02*
G01X34822Y333500D01*
G01X47778Y336700D02*
G01X47067Y337500D01*
G01X47067Y337500D02*
G01X46000Y337900D01*
G01X46000Y337900D02*
G01X44578Y337900D01*
G01X44578Y337900D02*
G01X43511Y337500D01*
G01X43511Y337500D02*
G01X42800Y336700D01*
G01X42800Y336700D02*
G01X42800Y335900D01*
G01X42800Y335900D02*
G01X43156Y335100D01*
G01X43156Y335100D02*
G01X43511Y334700D01*
G01X43511Y334700D02*
G01X44222Y334300D01*
G01X44222Y334300D02*
G01X46356Y333500D01*
G01X46356Y333500D02*
G01X47067Y333100D01*
G01X47067Y333100D02*
G01X47422Y332700D01*
G01X47422Y332700D02*
G01X47778Y331900D01*
G01X47778Y331900D02*
G01X47778Y330700D01*
G01X47778Y330700D02*
G01X47067Y329900D01*
G01X47067Y329900D02*
G01X46000Y329500D01*
G01X46000Y329500D02*
G01X44578Y329500D01*
G01X44578Y329500D02*
G01X43511Y329900D01*
G01X43511Y329900D02*
G01X42800Y330700D01*
G01X-54250Y305932D02*
G01X-45850Y305932D01*
G01X-54250Y305932D02*
G01X-54250Y309132D01*
G01X-54250Y309132D02*
G01X-53850Y310199D01*
G01X-53850Y310199D02*
G01X-53450Y310554D01*
G01X-53450Y310554D02*
G01X-52650Y310910D01*
G01X-52650Y310910D02*
G01X-51850Y310910D01*
G01X-51850Y310910D02*
G01X-51050Y310554D01*
G01X-51050Y310554D02*
G01X-50650Y310199D01*
G01X-50650Y310199D02*
G01X-50250Y309132D01*
G01X-50250Y309132D02*
G01X-50250Y305932D01*
G01X-50250Y308421D02*
G01X-45850Y310910D01*
G01X-54250Y317537D02*
G01X-48383Y313910D01*
G01X-48383Y313910D02*
G01X-48383Y318568D01*
G01X-54250Y317537D02*
G01X-45850Y317537D01*
G01X71800Y225522D02*
G01X80200Y225522D01*
G01X71800Y225522D02*
G01X71800Y228722D01*
G01X71800Y228722D02*
G01X72200Y229789D01*
G01X72200Y229789D02*
G01X72600Y230144D01*
G01X72600Y230144D02*
G01X73400Y230500D01*
G01X73400Y230500D02*
G01X74200Y230500D01*
G01X74200Y230500D02*
G01X75000Y230144D01*
G01X75000Y230144D02*
G01X75400Y229789D01*
G01X75400Y229789D02*
G01X75800Y228722D01*
G01X75800Y228722D02*
G01X75800Y225522D01*
G01X75800Y228011D02*
G01X80200Y230500D01*
G01X71800Y237767D02*
G01X71800Y234211D01*
G01X71800Y234211D02*
G01X75400Y233856D01*
G01X75400Y233856D02*
G01X75000Y234211D01*
G01X75000Y234211D02*
G01X74600Y235278D01*
G01X74600Y235278D02*
G01X74600Y236344D01*
G01X74600Y236344D02*
G01X75000Y237411D01*
G01X75000Y237411D02*
G01X75800Y238122D01*
G01X75800Y238122D02*
G01X77000Y238478D01*
G01X77000Y238478D02*
G01X77800Y238478D01*
G01X77800Y238478D02*
G01X79000Y238122D01*
G01X79000Y238122D02*
G01X79800Y237411D01*
G01X79800Y237411D02*
G01X80200Y236344D01*
G01X80200Y236344D02*
G01X80200Y235278D01*
G01X80200Y235278D02*
G01X79800Y234211D01*
G01X79800Y234211D02*
G01X79400Y233856D01*
G01X79400Y233856D02*
G01X78600Y233500D01*
G01X94250Y225800D02*
G01X102650Y225800D01*
G01X94250Y225800D02*
G01X94250Y229000D01*
G01X94250Y229000D02*
G01X94650Y230067D01*
G01X94650Y230067D02*
G01X95050Y230422D01*
G01X95050Y230422D02*
G01X95850Y230778D01*
G01X95850Y230778D02*
G01X96650Y230778D01*
G01X96650Y230778D02*
G01X97450Y230422D01*
G01X97450Y230422D02*
G01X97850Y230067D01*
G01X97850Y230067D02*
G01X98250Y229000D01*
G01X98250Y229000D02*
G01X98250Y225800D01*
G01X98250Y228289D02*
G01X102650Y230778D01*
G01X95450Y238044D02*
G01X94650Y237689D01*
G01X94650Y237689D02*
G01X94250Y236622D01*
G01X94250Y236622D02*
G01X94250Y235911D01*
G01X94250Y235911D02*
G01X94650Y234844D01*
G01X94650Y234844D02*
G01X95850Y234133D01*
G01X95850Y234133D02*
G01X97850Y233778D01*
G01X97850Y233778D02*
G01X99850Y233778D01*
G01X99850Y233778D02*
G01X101450Y234133D01*
G01X101450Y234133D02*
G01X102250Y234844D01*
G01X102250Y234844D02*
G01X102650Y235911D01*
G01X102650Y235911D02*
G01X102650Y236267D01*
G01X102650Y236267D02*
G01X102250Y237333D01*
G01X102250Y237333D02*
G01X101450Y238044D01*
G01X101450Y238044D02*
G01X100250Y238400D01*
G01X100250Y238400D02*
G01X99850Y238400D01*
G01X99850Y238400D02*
G01X98650Y238044D01*
G01X98650Y238044D02*
G01X97850Y237333D01*
G01X97850Y237333D02*
G01X97450Y236267D01*
G01X97450Y236267D02*
G01X97450Y235911D01*
G01X97450Y235911D02*
G01X97850Y234844D01*
G01X97850Y234844D02*
G01X98650Y234133D01*
G01X98650Y234133D02*
G01X99850Y233778D01*
G01X-54250Y287172D02*
G01X-45850Y287172D01*
G01X-54250Y287172D02*
G01X-54250Y290372D01*
G01X-54250Y290372D02*
G01X-53850Y291439D01*
G01X-53850Y291439D02*
G01X-53450Y291794D01*
G01X-53450Y291794D02*
G01X-52650Y292150D01*
G01X-52650Y292150D02*
G01X-51850Y292150D01*
G01X-51850Y292150D02*
G01X-51050Y291794D01*
G01X-51050Y291794D02*
G01X-50650Y291439D01*
G01X-50650Y291439D02*
G01X-50250Y290372D01*
G01X-50250Y290372D02*
G01X-50250Y287172D01*
G01X-50250Y289661D02*
G01X-45850Y292150D01*
G01X-54250Y300128D02*
G01X-45850Y296572D01*
G01X-54250Y295150D02*
G01X-54250Y300128D01*
G01X-54250Y265283D02*
G01X-45850Y265283D01*
G01X-54250Y265283D02*
G01X-54250Y268483D01*
G01X-54250Y268483D02*
G01X-53850Y269550D01*
G01X-53850Y269550D02*
G01X-53450Y269906D01*
G01X-53450Y269906D02*
G01X-52650Y270261D01*
G01X-52650Y270261D02*
G01X-51850Y270261D01*
G01X-51850Y270261D02*
G01X-51050Y269906D01*
G01X-51050Y269906D02*
G01X-50650Y269550D01*
G01X-50650Y269550D02*
G01X-50250Y268483D01*
G01X-50250Y268483D02*
G01X-50250Y265283D01*
G01X-50250Y267772D02*
G01X-45850Y270261D01*
G01X-52650Y273261D02*
G01X-53050Y273972D01*
G01X-53050Y273972D02*
G01X-54250Y275039D01*
G01X-54250Y275039D02*
G01X-45850Y275039D01*
G01X-54250Y283017D02*
G01X-45850Y279461D01*
G01X-54250Y278039D02*
G01X-54250Y283017D01*
G01X70133Y349200D02*
G01X70133Y340800D01*
G01X70133Y349200D02*
G01X73333Y349200D01*
G01X73333Y349200D02*
G01X74400Y348800D01*
G01X74400Y348800D02*
G01X74756Y348400D01*
G01X74756Y348400D02*
G01X75111Y347600D01*
G01X75111Y347600D02*
G01X75111Y346800D01*
G01X75111Y346800D02*
G01X74756Y346000D01*
G01X74756Y346000D02*
G01X74400Y345600D01*
G01X74400Y345600D02*
G01X73333Y345200D01*
G01X73333Y345200D02*
G01X70133Y345200D01*
G01X72622Y345200D02*
G01X75111Y340800D01*
G01X78111Y347600D02*
G01X78822Y348000D01*
G01X78822Y348000D02*
G01X79889Y349200D01*
G01X79889Y349200D02*
G01X79889Y340800D01*
G01X84667Y349200D02*
G01X83600Y348800D01*
G01X83600Y348800D02*
G01X83244Y348000D01*
G01X83244Y348000D02*
G01X83244Y347200D01*
G01X83244Y347200D02*
G01X83600Y346400D01*
G01X83600Y346400D02*
G01X84311Y346000D01*
G01X84311Y346000D02*
G01X85733Y345600D01*
G01X85733Y345600D02*
G01X86800Y345200D01*
G01X86800Y345200D02*
G01X87511Y344400D01*
G01X87511Y344400D02*
G01X87867Y343600D01*
G01X87867Y343600D02*
G01X87867Y342400D01*
G01X87867Y342400D02*
G01X87511Y341600D01*
G01X87511Y341600D02*
G01X87156Y341200D01*
G01X87156Y341200D02*
G01X86089Y340800D01*
G01X86089Y340800D02*
G01X84667Y340800D01*
G01X84667Y340800D02*
G01X83600Y341200D01*
G01X83600Y341200D02*
G01X83244Y341600D01*
G01X83244Y341600D02*
G01X82889Y342400D01*
G01X82889Y342400D02*
G01X82889Y343600D01*
G01X82889Y343600D02*
G01X83244Y344400D01*
G01X83244Y344400D02*
G01X83956Y345200D01*
G01X83956Y345200D02*
G01X85022Y345600D01*
G01X85022Y345600D02*
G01X86444Y346000D01*
G01X86444Y346000D02*
G01X87156Y346400D01*
G01X87156Y346400D02*
G01X87511Y347200D01*
G01X87511Y347200D02*
G01X87511Y348000D01*
G01X87511Y348000D02*
G01X87156Y348800D01*
G01X87156Y348800D02*
G01X86089Y349200D01*
G01X86089Y349200D02*
G01X84667Y349200D01*
G01X66983Y111200D02*
G01X66983Y102800D01*
G01X66983Y111200D02*
G01X70183Y111200D01*
G01X70183Y111200D02*
G01X71250Y110800D01*
G01X71250Y110800D02*
G01X71606Y110400D01*
G01X71606Y110400D02*
G01X71961Y109600D01*
G01X71961Y109600D02*
G01X71961Y108800D01*
G01X71961Y108800D02*
G01X71606Y108000D01*
G01X71606Y108000D02*
G01X71250Y107600D01*
G01X71250Y107600D02*
G01X70183Y107200D01*
G01X70183Y107200D02*
G01X66983Y107200D01*
G01X69472Y107200D02*
G01X71961Y102800D01*
G01X75317Y109200D02*
G01X75317Y109600D01*
G01X75317Y109600D02*
G01X75672Y110400D01*
G01X75672Y110400D02*
G01X76028Y110800D01*
G01X76028Y110800D02*
G01X76739Y111200D01*
G01X76739Y111200D02*
G01X78161Y111200D01*
G01X78161Y111200D02*
G01X78872Y110800D01*
G01X78872Y110800D02*
G01X79228Y110400D01*
G01X79228Y110400D02*
G01X79583Y109600D01*
G01X79583Y109600D02*
G01X79583Y108800D01*
G01X79583Y108800D02*
G01X79228Y108000D01*
G01X79228Y108000D02*
G01X78517Y106800D01*
G01X78517Y106800D02*
G01X74961Y102800D01*
G01X74961Y102800D02*
G01X79939Y102800D01*
G01X83294Y109200D02*
G01X83294Y109600D01*
G01X83294Y109600D02*
G01X83650Y110400D01*
G01X83650Y110400D02*
G01X84006Y110800D01*
G01X84006Y110800D02*
G01X84717Y111200D01*
G01X84717Y111200D02*
G01X86139Y111200D01*
G01X86139Y111200D02*
G01X86850Y110800D01*
G01X86850Y110800D02*
G01X87206Y110400D01*
G01X87206Y110400D02*
G01X87561Y109600D01*
G01X87561Y109600D02*
G01X87561Y108800D01*
G01X87561Y108800D02*
G01X87206Y108000D01*
G01X87206Y108000D02*
G01X86494Y106800D01*
G01X86494Y106800D02*
G01X82939Y102800D01*
G01X82939Y102800D02*
G01X87917Y102800D01*
G01X66983Y100450D02*
G01X66983Y92050D01*
G01X66983Y100450D02*
G01X70183Y100450D01*
G01X70183Y100450D02*
G01X71250Y100050D01*
G01X71250Y100050D02*
G01X71606Y99650D01*
G01X71606Y99650D02*
G01X71961Y98850D01*
G01X71961Y98850D02*
G01X71961Y98050D01*
G01X71961Y98050D02*
G01X71606Y97250D01*
G01X71606Y97250D02*
G01X71250Y96850D01*
G01X71250Y96850D02*
G01X70183Y96450D01*
G01X70183Y96450D02*
G01X66983Y96450D01*
G01X69472Y96450D02*
G01X71961Y92050D01*
G01X75317Y98450D02*
G01X75317Y98850D01*
G01X75317Y98850D02*
G01X75672Y99650D01*
G01X75672Y99650D02*
G01X76028Y100050D01*
G01X76028Y100050D02*
G01X76739Y100450D01*
G01X76739Y100450D02*
G01X78161Y100450D01*
G01X78161Y100450D02*
G01X78872Y100050D01*
G01X78872Y100050D02*
G01X79228Y99650D01*
G01X79228Y99650D02*
G01X79583Y98850D01*
G01X79583Y98850D02*
G01X79583Y98050D01*
G01X79583Y98050D02*
G01X79228Y97250D01*
G01X79228Y97250D02*
G01X78517Y96050D01*
G01X78517Y96050D02*
G01X74961Y92050D01*
G01X74961Y92050D02*
G01X79939Y92050D01*
G01X83650Y100450D02*
G01X87561Y100450D01*
G01X87561Y100450D02*
G01X85428Y97250D01*
G01X85428Y97250D02*
G01X86494Y97250D01*
G01X86494Y97250D02*
G01X87206Y96850D01*
G01X87206Y96850D02*
G01X87561Y96450D01*
G01X87561Y96450D02*
G01X87917Y95250D01*
G01X87917Y95250D02*
G01X87917Y94450D01*
G01X87917Y94450D02*
G01X87561Y93250D01*
G01X87561Y93250D02*
G01X86850Y92450D01*
G01X86850Y92450D02*
G01X85783Y92050D01*
G01X85783Y92050D02*
G01X84717Y92050D01*
G01X84717Y92050D02*
G01X83650Y92450D01*
G01X83650Y92450D02*
G01X83294Y92850D01*
G01X83294Y92850D02*
G01X82939Y93650D01*
G01X106050Y198293D02*
G01X114450Y198293D01*
G01X106050Y198293D02*
G01X106050Y201493D01*
G01X106050Y201493D02*
G01X106450Y202560D01*
G01X106450Y202560D02*
G01X106850Y202916D01*
G01X106850Y202916D02*
G01X107650Y203271D01*
G01X107650Y203271D02*
G01X108450Y203271D01*
G01X108450Y203271D02*
G01X109250Y202916D01*
G01X109250Y202916D02*
G01X109650Y202560D01*
G01X109650Y202560D02*
G01X110050Y201493D01*
G01X110050Y201493D02*
G01X110050Y198293D01*
G01X110050Y200782D02*
G01X114450Y203271D01*
G01X108050Y206627D02*
G01X107650Y206627D01*
G01X107650Y206627D02*
G01X106850Y206982D01*
G01X106850Y206982D02*
G01X106450Y207338D01*
G01X106450Y207338D02*
G01X106050Y208049D01*
G01X106050Y208049D02*
G01X106050Y209471D01*
G01X106050Y209471D02*
G01X106450Y210182D01*
G01X106450Y210182D02*
G01X106850Y210538D01*
G01X106850Y210538D02*
G01X107650Y210893D01*
G01X107650Y210893D02*
G01X108450Y210893D01*
G01X108450Y210893D02*
G01X109250Y210538D01*
G01X109250Y210538D02*
G01X110450Y209827D01*
G01X110450Y209827D02*
G01X114450Y206271D01*
G01X114450Y206271D02*
G01X114450Y211249D01*
G01X106050Y217876D02*
G01X111917Y214249D01*
G01X111917Y214249D02*
G01X111917Y218907D01*
G01X106050Y217876D02*
G01X114450Y217876D01*
G01X66983Y122050D02*
G01X66983Y113650D01*
G01X66983Y122050D02*
G01X70183Y122050D01*
G01X70183Y122050D02*
G01X71250Y121650D01*
G01X71250Y121650D02*
G01X71606Y121250D01*
G01X71606Y121250D02*
G01X71961Y120450D01*
G01X71961Y120450D02*
G01X71961Y119650D01*
G01X71961Y119650D02*
G01X71606Y118850D01*
G01X71606Y118850D02*
G01X71250Y118450D01*
G01X71250Y118450D02*
G01X70183Y118050D01*
G01X70183Y118050D02*
G01X66983Y118050D01*
G01X69472Y118050D02*
G01X71961Y113650D01*
G01X75317Y120050D02*
G01X75317Y120450D01*
G01X75317Y120450D02*
G01X75672Y121250D01*
G01X75672Y121250D02*
G01X76028Y121650D01*
G01X76028Y121650D02*
G01X76739Y122050D01*
G01X76739Y122050D02*
G01X78161Y122050D01*
G01X78161Y122050D02*
G01X78872Y121650D01*
G01X78872Y121650D02*
G01X79228Y121250D01*
G01X79228Y121250D02*
G01X79583Y120450D01*
G01X79583Y120450D02*
G01X79583Y119650D01*
G01X79583Y119650D02*
G01X79228Y118850D01*
G01X79228Y118850D02*
G01X78517Y117650D01*
G01X78517Y117650D02*
G01X74961Y113650D01*
G01X74961Y113650D02*
G01X79939Y113650D01*
G01X87206Y122050D02*
G01X83650Y122050D01*
G01X83650Y122050D02*
G01X83294Y118450D01*
G01X83294Y118450D02*
G01X83650Y118850D01*
G01X83650Y118850D02*
G01X84717Y119250D01*
G01X84717Y119250D02*
G01X85783Y119250D01*
G01X85783Y119250D02*
G01X86850Y118850D01*
G01X86850Y118850D02*
G01X87561Y118050D01*
G01X87561Y118050D02*
G01X87917Y116850D01*
G01X87917Y116850D02*
G01X87917Y116050D01*
G01X87917Y116050D02*
G01X87561Y114850D01*
G01X87561Y114850D02*
G01X86850Y114050D01*
G01X86850Y114050D02*
G01X85783Y113650D01*
G01X85783Y113650D02*
G01X84717Y113650D01*
G01X84717Y113650D02*
G01X83650Y114050D01*
G01X83650Y114050D02*
G01X83294Y114450D01*
G01X83294Y114450D02*
G01X82939Y115250D01*
G01X-87733Y338200D02*
G01X-87733Y329800D01*
G01X-87733Y338200D02*
G01X-84533Y338200D01*
G01X-84533Y338200D02*
G01X-83467Y337800D01*
G01X-83467Y337800D02*
G01X-83111Y337400D01*
G01X-83111Y337400D02*
G01X-82756Y336600D01*
G01X-82756Y336600D02*
G01X-82756Y335800D01*
G01X-82756Y335800D02*
G01X-83111Y335000D01*
G01X-83111Y335000D02*
G01X-83467Y334600D01*
G01X-83467Y334600D02*
G01X-84533Y334200D01*
G01X-84533Y334200D02*
G01X-87733Y334200D01*
G01X-85244Y334200D02*
G01X-82756Y329800D01*
G01X-79756Y333000D02*
G01X-75489Y333000D01*
G01X-75489Y333000D02*
G01X-75489Y333800D01*
G01X-75489Y333800D02*
G01X-75844Y334600D01*
G01X-75844Y334600D02*
G01X-76200Y335000D01*
G01X-76200Y335000D02*
G01X-76911Y335400D01*
G01X-76911Y335400D02*
G01X-77978Y335400D01*
G01X-77978Y335400D02*
G01X-78689Y335000D01*
G01X-78689Y335000D02*
G01X-79400Y334200D01*
G01X-79400Y334200D02*
G01X-79756Y333000D01*
G01X-79756Y333000D02*
G01X-79756Y332200D01*
G01X-79756Y332200D02*
G01X-79400Y331000D01*
G01X-79400Y331000D02*
G01X-78689Y330200D01*
G01X-78689Y330200D02*
G01X-77978Y329800D01*
G01X-77978Y329800D02*
G01X-76911Y329800D01*
G01X-76911Y329800D02*
G01X-76200Y330200D01*
G01X-76200Y330200D02*
G01X-75489Y331000D01*
G01X-68578Y334200D02*
G01X-68933Y335000D01*
G01X-68933Y335000D02*
G01X-70000Y335400D01*
G01X-70000Y335400D02*
G01X-71067Y335400D01*
G01X-71067Y335400D02*
G01X-72133Y335000D01*
G01X-72133Y335000D02*
G01X-72489Y334200D01*
G01X-72489Y334200D02*
G01X-72133Y333400D01*
G01X-72133Y333400D02*
G01X-71422Y333000D01*
G01X-71422Y333000D02*
G01X-69644Y332600D01*
G01X-69644Y332600D02*
G01X-68933Y332200D01*
G01X-68933Y332200D02*
G01X-68578Y331400D01*
G01X-68578Y331400D02*
G01X-68578Y331000D01*
G01X-68578Y331000D02*
G01X-68933Y330200D01*
G01X-68933Y330200D02*
G01X-70000Y329800D01*
G01X-70000Y329800D02*
G01X-71067Y329800D01*
G01X-71067Y329800D02*
G01X-72133Y330200D01*
G01X-72133Y330200D02*
G01X-72489Y331000D01*
G01X-65578Y333000D02*
G01X-61311Y333000D01*
G01X-61311Y333000D02*
G01X-61311Y333800D01*
G01X-61311Y333800D02*
G01X-61667Y334600D01*
G01X-61667Y334600D02*
G01X-62022Y335000D01*
G01X-62022Y335000D02*
G01X-62733Y335400D01*
G01X-62733Y335400D02*
G01X-63800Y335400D01*
G01X-63800Y335400D02*
G01X-64511Y335000D01*
G01X-64511Y335000D02*
G01X-65222Y334200D01*
G01X-65222Y334200D02*
G01X-65578Y333000D01*
G01X-65578Y333000D02*
G01X-65578Y332200D01*
G01X-65578Y332200D02*
G01X-65222Y331000D01*
G01X-65222Y331000D02*
G01X-64511Y330200D01*
G01X-64511Y330200D02*
G01X-63800Y329800D01*
G01X-63800Y329800D02*
G01X-62733Y329800D01*
G01X-62733Y329800D02*
G01X-62022Y330200D01*
G01X-62022Y330200D02*
G01X-61311Y331000D01*
G01X-57244Y338200D02*
G01X-57244Y331400D01*
G01X-57244Y331400D02*
G01X-56889Y330200D01*
G01X-56889Y330200D02*
G01X-56178Y329800D01*
G01X-56178Y329800D02*
G01X-55467Y329800D01*
G01X-58311Y335400D02*
G01X-55822Y335400D01*
G01X-0978Y319200D02*
G01X-0978Y310800D01*
G01X-3467Y319200D02*
G01X1511Y319200D01*
G01X4511Y319200D02*
G01X4511Y310800D01*
G01X4511Y319200D02*
G01X7711Y319200D01*
G01X7711Y319200D02*
G01X8778Y318800D01*
G01X8778Y318800D02*
G01X9133Y318400D01*
G01X9133Y318400D02*
G01X9489Y317600D01*
G01X9489Y317600D02*
G01X9489Y316800D01*
G01X9489Y316800D02*
G01X9133Y316000D01*
G01X9133Y316000D02*
G01X8778Y315600D01*
G01X8778Y315600D02*
G01X7711Y315200D01*
G01X7711Y315200D02*
G01X4511Y315200D01*
G01X7000Y315200D02*
G01X9489Y310800D01*
G01X12844Y317200D02*
G01X12844Y317600D01*
G01X12844Y317600D02*
G01X13200Y318400D01*
G01X13200Y318400D02*
G01X13556Y318800D01*
G01X13556Y318800D02*
G01X14267Y319200D01*
G01X14267Y319200D02*
G01X15689Y319200D01*
G01X15689Y319200D02*
G01X16400Y318800D01*
G01X16400Y318800D02*
G01X16756Y318400D01*
G01X16756Y318400D02*
G01X17111Y317600D01*
G01X17111Y317600D02*
G01X17111Y316800D01*
G01X17111Y316800D02*
G01X16756Y316000D01*
G01X16756Y316000D02*
G01X16044Y314800D01*
G01X16044Y314800D02*
G01X12489Y310800D01*
G01X12489Y310800D02*
G01X17467Y310800D01*
G01X96922Y315500D02*
G01X96922Y307100D01*
G01X94433Y315500D02*
G01X99411Y315500D01*
G01X102411Y315500D02*
G01X102411Y307100D01*
G01X102411Y315500D02*
G01X105611Y315500D01*
G01X105611Y315500D02*
G01X106678Y315100D01*
G01X106678Y315100D02*
G01X107033Y314700D01*
G01X107033Y314700D02*
G01X107389Y313900D01*
G01X107389Y313900D02*
G01X107389Y313100D01*
G01X107389Y313100D02*
G01X107033Y312300D01*
G01X107033Y312300D02*
G01X106678Y311900D01*
G01X106678Y311900D02*
G01X105611Y311500D01*
G01X105611Y311500D02*
G01X102411Y311500D01*
G01X104900Y311500D02*
G01X107389Y307100D01*
G01X111100Y315500D02*
G01X115011Y315500D01*
G01X115011Y315500D02*
G01X112878Y312300D01*
G01X112878Y312300D02*
G01X113944Y312300D01*
G01X113944Y312300D02*
G01X114656Y311900D01*
G01X114656Y311900D02*
G01X115011Y311500D01*
G01X115011Y311500D02*
G01X115367Y310300D01*
G01X115367Y310300D02*
G01X115367Y309500D01*
G01X115367Y309500D02*
G01X115011Y308300D01*
G01X115011Y308300D02*
G01X114300Y307500D01*
G01X114300Y307500D02*
G01X113233Y307100D01*
G01X113233Y307100D02*
G01X112167Y307100D01*
G01X112167Y307100D02*
G01X111100Y307500D01*
G01X111100Y307500D02*
G01X110744Y307900D01*
G01X110744Y307900D02*
G01X110389Y308700D01*
G01X-29678Y161100D02*
G01X-29678Y155100D01*
G01X-29678Y155100D02*
G01X-29322Y153900D01*
G01X-29322Y153900D02*
G01X-28611Y153100D01*
G01X-28611Y153100D02*
G01X-27544Y152700D01*
G01X-27544Y152700D02*
G01X-26833Y152700D01*
G01X-26833Y152700D02*
G01X-25767Y153100D01*
G01X-25767Y153100D02*
G01X-25056Y153900D01*
G01X-25056Y153900D02*
G01X-24700Y155100D01*
G01X-24700Y155100D02*
G01X-24700Y161100D01*
G01X-16722Y161100D02*
G01X-20278Y152700D01*
G01X-21700Y161100D02*
G01X-16722Y161100D01*
G01X-159640Y362973D02*
G01X-166360Y362973D01*
G01X-159640Y362973D02*
G01X-159640Y360413D01*
G01X-159640Y360413D02*
G01X-159960Y359560D01*
G01X-159960Y359560D02*
G01X-160280Y359276D01*
G01X-160280Y359276D02*
G01X-160920Y358991D01*
G01X-160920Y358991D02*
G01X-161560Y358991D01*
G01X-161560Y358991D02*
G01X-162200Y359276D01*
G01X-162200Y359276D02*
G01X-162520Y359560D01*
G01X-162520Y359560D02*
G01X-162840Y360413D01*
G01X-162840Y360413D02*
G01X-162840Y362973D01*
G01X-162840Y360982D02*
G01X-166360Y358991D01*
G01X-160600Y352509D02*
G01X-159960Y353078D01*
G01X-159960Y353078D02*
G01X-159640Y353931D01*
G01X-159640Y353931D02*
G01X-159640Y355069D01*
G01X-159640Y355069D02*
G01X-159960Y355922D01*
G01X-159960Y355922D02*
G01X-160600Y356491D01*
G01X-160600Y356491D02*
G01X-161240Y356491D01*
G01X-161240Y356491D02*
G01X-161880Y356207D01*
G01X-161880Y356207D02*
G01X-162200Y355922D01*
G01X-162200Y355922D02*
G01X-162520Y355353D01*
G01X-162520Y355353D02*
G01X-163160Y353647D01*
G01X-163160Y353647D02*
G01X-163480Y353078D01*
G01X-163480Y353078D02*
G01X-163800Y352793D01*
G01X-163800Y352793D02*
G01X-164440Y352509D01*
G01X-164440Y352509D02*
G01X-165400Y352509D01*
G01X-165400Y352509D02*
G01X-166040Y353078D01*
G01X-166040Y353078D02*
G01X-166360Y353931D01*
G01X-166360Y353931D02*
G01X-166360Y355069D01*
G01X-166360Y355069D02*
G01X-166040Y355922D01*
G01X-166040Y355922D02*
G01X-165400Y356491D01*
G01X-159640Y348018D02*
G01X-166360Y348018D01*
G01X-159640Y350009D02*
G01X-159640Y346027D01*
G01X-159740Y202319D02*
G01X-159100Y202575D01*
G01X-159100Y202575D02*
G01X-158460Y203059D01*
G01X-158460Y203059D02*
G01X-158140Y203571D01*
G01X-158140Y203571D02*
G01X-158140Y204566D01*
G01X-158140Y204566D02*
G01X-158460Y205050D01*
G01X-158460Y205050D02*
G01X-159100Y205562D01*
G01X-159100Y205562D02*
G01X-159740Y205789D01*
G01X-159740Y205789D02*
G01X-160700Y206045D01*
G01X-160700Y206045D02*
G01X-162300Y206045D01*
G01X-162300Y206045D02*
G01X-163260Y205789D01*
G01X-163260Y205789D02*
G01X-163900Y205562D01*
G01X-163900Y205562D02*
G01X-164540Y205050D01*
G01X-164540Y205050D02*
G01X-164860Y204566D01*
G01X-164860Y204566D02*
G01X-164860Y203571D01*
G01X-164860Y203571D02*
G01X-164540Y203059D01*
G01X-164540Y203059D02*
G01X-163900Y202575D01*
G01X-163900Y202575D02*
G01X-163260Y202319D01*
G01X-163260Y202319D02*
G01X-162300Y202319D01*
G01X-162300Y203571D02*
G01X-162300Y202319D01*
G01X-158140Y199819D02*
G01X-164860Y199819D01*
G01X-158140Y199819D02*
G01X-164860Y195837D01*
G01X-158140Y195837D02*
G01X-164860Y195837D01*
G01X-158140Y193337D02*
G01X-164860Y193337D01*
G01X-158140Y193337D02*
G01X-158140Y191346D01*
G01X-158140Y191346D02*
G01X-158460Y190492D01*
G01X-158460Y190492D02*
G01X-159100Y189924D01*
G01X-159100Y189924D02*
G01X-159740Y189639D01*
G01X-159740Y189639D02*
G01X-160700Y189355D01*
G01X-160700Y189355D02*
G01X-162300Y189355D01*
G01X-162300Y189355D02*
G01X-163260Y189639D01*
G01X-163260Y189639D02*
G01X-163900Y189924D01*
G01X-163900Y189924D02*
G01X-164540Y190492D01*
G01X-164540Y190492D02*
G01X-164860Y191346D01*
G01X-164860Y191346D02*
G01X-164860Y193337D01*
G01X-159640Y386382D02*
G01X-166360Y386382D01*
G01X-159640Y388373D02*
G01X-159640Y384391D01*
G01X-159640Y381891D02*
G01X-166360Y381891D01*
G01X-159640Y381891D02*
G01X-166360Y379900D01*
G01X-159640Y377909D02*
G01X-166360Y379900D01*
G01X-159640Y377909D02*
G01X-166360Y377909D01*
G01X-160600Y371427D02*
G01X-159960Y371996D01*
G01X-159960Y371996D02*
G01X-159640Y372849D01*
G01X-159640Y372849D02*
G01X-159640Y373987D01*
G01X-159640Y373987D02*
G01X-159960Y374840D01*
G01X-159960Y374840D02*
G01X-160600Y375409D01*
G01X-160600Y375409D02*
G01X-161240Y375409D01*
G01X-161240Y375409D02*
G01X-161880Y375124D01*
G01X-161880Y375124D02*
G01X-162200Y374840D01*
G01X-162200Y374840D02*
G01X-162520Y374271D01*
G01X-162520Y374271D02*
G01X-163160Y372564D01*
G01X-163160Y372564D02*
G01X-163480Y371996D01*
G01X-163480Y371996D02*
G01X-163800Y371711D01*
G01X-163800Y371711D02*
G01X-164440Y371427D01*
G01X-164440Y371427D02*
G01X-165400Y371427D01*
G01X-165400Y371427D02*
G01X-166040Y371996D01*
G01X-166040Y371996D02*
G01X-166360Y372849D01*
G01X-166360Y372849D02*
G01X-166360Y373987D01*
G01X-166360Y373987D02*
G01X-166040Y374840D01*
G01X-166040Y374840D02*
G01X-165400Y375409D01*
G01X-159640Y310893D02*
G01X-166360Y310893D01*
G01X-159640Y310893D02*
G01X-159640Y308333D01*
G01X-159640Y308333D02*
G01X-159960Y307480D01*
G01X-159960Y307480D02*
G01X-160280Y307196D01*
G01X-160280Y307196D02*
G01X-160920Y306911D01*
G01X-160920Y306911D02*
G01X-161880Y306911D01*
G01X-161880Y306911D02*
G01X-162520Y307196D01*
G01X-162520Y307196D02*
G01X-162840Y307480D01*
G01X-162840Y307480D02*
G01X-163160Y308333D01*
G01X-163160Y308333D02*
G01X-163160Y310893D01*
G01X-159640Y302420D02*
G01X-166360Y304411D01*
G01X-159640Y302420D02*
G01X-166360Y300429D01*
G01X-164547Y303672D02*
G01X-164547Y301168D01*
G01X-160920Y297929D02*
G01X-160600Y297360D01*
G01X-160600Y297360D02*
G01X-159640Y296507D01*
G01X-159640Y296507D02*
G01X-166360Y296507D01*
G01X-161240Y435177D02*
G01X-160600Y435433D01*
G01X-160600Y435433D02*
G01X-159960Y435916D01*
G01X-159960Y435916D02*
G01X-159640Y436428D01*
G01X-159640Y436428D02*
G01X-159640Y437424D01*
G01X-159640Y437424D02*
G01X-159960Y437908D01*
G01X-159960Y437908D02*
G01X-160600Y438420D01*
G01X-160600Y438420D02*
G01X-161240Y438647D01*
G01X-161240Y438647D02*
G01X-162200Y438903D01*
G01X-162200Y438903D02*
G01X-163800Y438903D01*
G01X-163800Y438903D02*
G01X-164760Y438647D01*
G01X-164760Y438647D02*
G01X-165400Y438420D01*
G01X-165400Y438420D02*
G01X-166040Y437908D01*
G01X-166040Y437908D02*
G01X-166360Y437424D01*
G01X-166360Y437424D02*
G01X-166360Y436428D01*
G01X-166360Y436428D02*
G01X-166040Y435916D01*
G01X-166040Y435916D02*
G01X-165400Y435433D01*
G01X-165400Y435433D02*
G01X-164760Y435177D01*
G01X-159640Y432392D02*
G01X-166360Y432392D01*
G01X-166360Y432392D02*
G01X-166360Y428979D01*
G01X-159640Y426479D02*
G01X-166360Y426479D01*
G01X-159640Y422497D02*
G01X-164120Y426479D01*
G01X-162520Y425057D02*
G01X-166360Y422497D01*
G01X-159640Y337573D02*
G01X-166360Y337573D01*
G01X-159640Y337573D02*
G01X-159640Y335013D01*
G01X-159640Y335013D02*
G01X-159960Y334160D01*
G01X-159960Y334160D02*
G01X-160280Y333876D01*
G01X-160280Y333876D02*
G01X-160920Y333591D01*
G01X-160920Y333591D02*
G01X-161880Y333591D01*
G01X-161880Y333591D02*
G01X-162520Y333876D01*
G01X-162520Y333876D02*
G01X-162840Y334160D01*
G01X-162840Y334160D02*
G01X-163160Y335013D01*
G01X-163160Y335013D02*
G01X-163160Y337573D01*
G01X-159640Y329100D02*
G01X-166360Y331091D01*
G01X-159640Y329100D02*
G01X-166360Y327109D01*
G01X-164547Y330352D02*
G01X-164547Y327848D01*
G01X-159640Y322902D02*
G01X-159960Y323756D01*
G01X-159960Y323756D02*
G01X-160920Y324324D01*
G01X-160920Y324324D02*
G01X-162520Y324609D01*
G01X-162520Y324609D02*
G01X-163480Y324609D01*
G01X-163480Y324609D02*
G01X-165080Y324324D01*
G01X-165080Y324324D02*
G01X-166040Y323756D01*
G01X-166040Y323756D02*
G01X-166360Y322902D01*
G01X-166360Y322902D02*
G01X-166360Y322333D01*
G01X-166360Y322333D02*
G01X-166040Y321480D01*
G01X-166040Y321480D02*
G01X-165080Y320911D01*
G01X-165080Y320911D02*
G01X-163480Y320627D01*
G01X-163480Y320627D02*
G01X-162520Y320627D01*
G01X-162520Y320627D02*
G01X-160920Y320911D01*
G01X-160920Y320911D02*
G01X-159960Y321480D01*
G01X-159960Y321480D02*
G01X-159640Y322333D01*
G01X-159640Y322333D02*
G01X-159640Y322902D01*
G01X-159640Y464317D02*
G01X-166360Y462326D01*
G01X-159640Y460335D02*
G01X-166360Y462326D01*
G01X-161240Y454109D02*
G01X-160600Y454365D01*
G01X-160600Y454365D02*
G01X-159960Y454848D01*
G01X-159960Y454848D02*
G01X-159640Y455360D01*
G01X-159640Y455360D02*
G01X-159640Y456356D01*
G01X-159640Y456356D02*
G01X-159960Y456840D01*
G01X-159960Y456840D02*
G01X-160600Y457352D01*
G01X-160600Y457352D02*
G01X-161240Y457579D01*
G01X-161240Y457579D02*
G01X-162200Y457835D01*
G01X-162200Y457835D02*
G01X-163800Y457835D01*
G01X-163800Y457835D02*
G01X-164760Y457579D01*
G01X-164760Y457579D02*
G01X-165400Y457352D01*
G01X-165400Y457352D02*
G01X-166040Y456840D01*
G01X-166040Y456840D02*
G01X-166360Y456356D01*
G01X-166360Y456356D02*
G01X-166360Y455360D01*
G01X-166360Y455360D02*
G01X-166040Y454848D01*
G01X-166040Y454848D02*
G01X-165400Y454365D01*
G01X-165400Y454365D02*
G01X-164760Y454109D01*
G01X-161240Y447883D02*
G01X-160600Y448139D01*
G01X-160600Y448139D02*
G01X-159960Y448622D01*
G01X-159960Y448622D02*
G01X-159640Y449134D01*
G01X-159640Y449134D02*
G01X-159640Y450130D01*
G01X-159640Y450130D02*
G01X-159960Y450613D01*
G01X-159960Y450613D02*
G01X-160600Y451125D01*
G01X-160600Y451125D02*
G01X-161240Y451353D01*
G01X-161240Y451353D02*
G01X-162200Y451609D01*
G01X-162200Y451609D02*
G01X-163800Y451609D01*
G01X-163800Y451609D02*
G01X-164760Y451353D01*
G01X-164760Y451353D02*
G01X-165400Y451125D01*
G01X-165400Y451125D02*
G01X-166040Y450613D01*
G01X-166040Y450613D02*
G01X-166360Y450130D01*
G01X-166360Y450130D02*
G01X-166360Y449134D01*
G01X-166360Y449134D02*
G01X-166040Y448622D01*
G01X-166040Y448622D02*
G01X-165400Y448139D01*
G01X-165400Y448139D02*
G01X-164760Y447883D01*
G01X-161240Y409919D02*
G01X-160600Y410175D01*
G01X-160600Y410175D02*
G01X-159960Y410659D01*
G01X-159960Y410659D02*
G01X-159640Y411171D01*
G01X-159640Y411171D02*
G01X-159640Y412166D01*
G01X-159640Y412166D02*
G01X-159960Y412650D01*
G01X-159960Y412650D02*
G01X-160600Y413162D01*
G01X-160600Y413162D02*
G01X-161240Y413389D01*
G01X-161240Y413389D02*
G01X-162200Y413645D01*
G01X-162200Y413645D02*
G01X-163800Y413645D01*
G01X-163800Y413645D02*
G01X-164760Y413389D01*
G01X-164760Y413389D02*
G01X-165400Y413162D01*
G01X-165400Y413162D02*
G01X-166040Y412650D01*
G01X-166040Y412650D02*
G01X-166360Y412166D01*
G01X-166360Y412166D02*
G01X-166360Y411171D01*
G01X-166360Y411171D02*
G01X-166040Y410659D01*
G01X-166040Y410659D02*
G01X-165400Y410175D01*
G01X-165400Y410175D02*
G01X-164760Y409919D01*
G01X-164760Y409919D02*
G01X-163800Y409919D01*
G01X-163800Y411171D02*
G01X-163800Y409919D01*
G01X-159640Y407419D02*
G01X-166360Y407419D01*
G01X-159640Y407419D02*
G01X-166360Y403437D01*
G01X-159640Y403437D02*
G01X-166360Y403437D01*
G01X-159640Y400937D02*
G01X-166360Y400937D01*
G01X-159640Y400937D02*
G01X-159640Y398946D01*
G01X-159640Y398946D02*
G01X-159960Y398092D01*
G01X-159960Y398092D02*
G01X-160600Y397524D01*
G01X-160600Y397524D02*
G01X-161240Y397239D01*
G01X-161240Y397239D02*
G01X-162200Y396955D01*
G01X-162200Y396955D02*
G01X-163800Y396955D01*
G01X-163800Y396955D02*
G01X-164760Y397239D01*
G01X-164760Y397239D02*
G01X-165400Y397524D01*
G01X-165400Y397524D02*
G01X-166040Y398092D01*
G01X-166040Y398092D02*
G01X-166360Y398946D01*
G01X-166360Y398946D02*
G01X-166360Y400937D01*
G01X161100Y281137D02*
G01X160460Y280568D01*
G01X160460Y280568D02*
G01X160140Y279715D01*
G01X160140Y279715D02*
G01X160140Y278577D01*
G01X160140Y278577D02*
G01X160460Y277724D01*
G01X160460Y277724D02*
G01X161100Y277155D01*
G01X161100Y277155D02*
G01X161740Y277155D01*
G01X161740Y277155D02*
G01X162380Y277439D01*
G01X162380Y277439D02*
G01X162700Y277724D01*
G01X162700Y277724D02*
G01X163020Y278292D01*
G01X163020Y278292D02*
G01X163660Y279999D01*
G01X163660Y279999D02*
G01X163980Y280568D01*
G01X163980Y280568D02*
G01X164300Y280852D01*
G01X164300Y280852D02*
G01X164940Y281137D01*
G01X164940Y281137D02*
G01X165900Y281137D01*
G01X165900Y281137D02*
G01X166540Y280568D01*
G01X166540Y280568D02*
G01X166860Y279715D01*
G01X166860Y279715D02*
G01X166860Y278577D01*
G01X166860Y278577D02*
G01X166540Y277724D01*
G01X166540Y277724D02*
G01X165900Y277155D01*
G01X161740Y287363D02*
G01X161100Y287107D01*
G01X161100Y287107D02*
G01X160460Y286624D01*
G01X160460Y286624D02*
G01X160140Y286112D01*
G01X160140Y286112D02*
G01X160140Y285116D01*
G01X160140Y285116D02*
G01X160460Y284632D01*
G01X160460Y284632D02*
G01X161100Y284120D01*
G01X161100Y284120D02*
G01X161740Y283893D01*
G01X161740Y283893D02*
G01X162700Y283637D01*
G01X162700Y283637D02*
G01X164300Y283637D01*
G01X164300Y283637D02*
G01X165260Y283893D01*
G01X165260Y283893D02*
G01X165900Y284120D01*
G01X165900Y284120D02*
G01X166540Y284632D01*
G01X166540Y284632D02*
G01X166860Y285116D01*
G01X166860Y285116D02*
G01X166860Y286112D01*
G01X166860Y286112D02*
G01X166540Y286624D01*
G01X166540Y286624D02*
G01X165900Y287107D01*
G01X165900Y287107D02*
G01X165260Y287363D01*
G01X160140Y289863D02*
G01X166860Y289863D01*
G01X160140Y293845D02*
G01X164620Y289863D01*
G01X163020Y291285D02*
G01X166860Y293845D01*
G01X160140Y201083D02*
G01X166860Y203074D01*
G01X160140Y205065D02*
G01X166860Y203074D01*
G01X161740Y211291D02*
G01X161100Y211035D01*
G01X161100Y211035D02*
G01X160460Y210552D01*
G01X160460Y210552D02*
G01X160140Y210040D01*
G01X160140Y210040D02*
G01X160140Y209044D01*
G01X160140Y209044D02*
G01X160460Y208560D01*
G01X160460Y208560D02*
G01X161100Y208048D01*
G01X161100Y208048D02*
G01X161740Y207821D01*
G01X161740Y207821D02*
G01X162700Y207565D01*
G01X162700Y207565D02*
G01X164300Y207565D01*
G01X164300Y207565D02*
G01X165260Y207821D01*
G01X165260Y207821D02*
G01X165900Y208048D01*
G01X165900Y208048D02*
G01X166540Y208560D01*
G01X166540Y208560D02*
G01X166860Y209044D01*
G01X166860Y209044D02*
G01X166860Y210040D01*
G01X166860Y210040D02*
G01X166540Y210552D01*
G01X166540Y210552D02*
G01X165900Y211035D01*
G01X165900Y211035D02*
G01X165260Y211291D01*
G01X161740Y217517D02*
G01X161100Y217261D01*
G01X161100Y217261D02*
G01X160460Y216778D01*
G01X160460Y216778D02*
G01X160140Y216266D01*
G01X160140Y216266D02*
G01X160140Y215270D01*
G01X160140Y215270D02*
G01X160460Y214787D01*
G01X160460Y214787D02*
G01X161100Y214275D01*
G01X161100Y214275D02*
G01X161740Y214047D01*
G01X161740Y214047D02*
G01X162700Y213791D01*
G01X162700Y213791D02*
G01X164300Y213791D01*
G01X164300Y213791D02*
G01X165260Y214047D01*
G01X165260Y214047D02*
G01X165900Y214275D01*
G01X165900Y214275D02*
G01X166540Y214787D01*
G01X166540Y214787D02*
G01X166860Y215270D01*
G01X166860Y215270D02*
G01X166860Y216266D01*
G01X166860Y216266D02*
G01X166540Y216778D01*
G01X166540Y216778D02*
G01X165900Y217261D01*
G01X165900Y217261D02*
G01X165260Y217517D01*
G01X161100Y447109D02*
G01X160460Y446540D01*
G01X160460Y446540D02*
G01X160140Y445687D01*
G01X160140Y445687D02*
G01X160140Y444549D01*
G01X160140Y444549D02*
G01X160460Y443696D01*
G01X160460Y443696D02*
G01X161100Y443127D01*
G01X161100Y443127D02*
G01X161740Y443127D01*
G01X161740Y443127D02*
G01X162380Y443411D01*
G01X162380Y443411D02*
G01X162700Y443696D01*
G01X162700Y443696D02*
G01X163020Y444264D01*
G01X163020Y444264D02*
G01X163660Y445971D01*
G01X163660Y445971D02*
G01X163980Y446540D01*
G01X163980Y446540D02*
G01X164300Y446824D01*
G01X164300Y446824D02*
G01X164940Y447109D01*
G01X164940Y447109D02*
G01X165900Y447109D01*
G01X165900Y447109D02*
G01X166540Y446540D01*
G01X166540Y446540D02*
G01X166860Y445687D01*
G01X166860Y445687D02*
G01X166860Y444549D01*
G01X166860Y444549D02*
G01X166540Y443696D01*
G01X166540Y443696D02*
G01X165900Y443127D01*
G01X160140Y449609D02*
G01X166860Y449609D01*
G01X160140Y449609D02*
G01X160140Y451600D01*
G01X160140Y451600D02*
G01X160460Y452453D01*
G01X160460Y452453D02*
G01X161100Y453022D01*
G01X161100Y453022D02*
G01X161740Y453307D01*
G01X161740Y453307D02*
G01X162700Y453591D01*
G01X162700Y453591D02*
G01X164300Y453591D01*
G01X164300Y453591D02*
G01X165260Y453307D01*
G01X165260Y453307D02*
G01X165900Y453022D01*
G01X165900Y453022D02*
G01X166540Y452453D01*
G01X166540Y452453D02*
G01X166860Y451600D01*
G01X166860Y451600D02*
G01X166860Y449609D01*
G01X160140Y458082D02*
G01X166860Y456091D01*
G01X160140Y458082D02*
G01X166860Y460073D01*
G01X165047Y456831D02*
G01X165047Y459334D01*
G01X160140Y422959D02*
G01X166860Y422959D01*
G01X160140Y420968D02*
G01X160140Y424950D01*
G01X160140Y427450D02*
G01X166860Y431432D01*
G01X160140Y431432D02*
G01X166860Y427450D01*
G01X160140Y301177D02*
G01X166860Y301177D01*
G01X160140Y301177D02*
G01X166860Y303168D01*
G01X160140Y305159D02*
G01X166860Y303168D01*
G01X160140Y305159D02*
G01X166860Y305159D01*
G01X160140Y307659D02*
G01X166860Y307659D01*
G01X161100Y314141D02*
G01X160460Y313572D01*
G01X160460Y313572D02*
G01X160140Y312719D01*
G01X160140Y312719D02*
G01X160140Y311581D01*
G01X160140Y311581D02*
G01X160460Y310728D01*
G01X160460Y310728D02*
G01X161100Y310159D01*
G01X161100Y310159D02*
G01X161740Y310159D01*
G01X161740Y310159D02*
G01X162380Y310443D01*
G01X162380Y310443D02*
G01X162700Y310728D01*
G01X162700Y310728D02*
G01X163020Y311297D01*
G01X163020Y311297D02*
G01X163660Y313003D01*
G01X163660Y313003D02*
G01X163980Y313572D01*
G01X163980Y313572D02*
G01X164300Y313857D01*
G01X164300Y313857D02*
G01X164940Y314141D01*
G01X164940Y314141D02*
G01X165900Y314141D01*
G01X165900Y314141D02*
G01X166540Y313572D01*
G01X166540Y313572D02*
G01X166860Y312719D01*
G01X166860Y312719D02*
G01X166860Y311581D01*
G01X166860Y311581D02*
G01X166540Y310728D01*
G01X166540Y310728D02*
G01X165900Y310159D01*
G01X160140Y318149D02*
G01X160460Y317637D01*
G01X160460Y317637D02*
G01X161100Y317153D01*
G01X161100Y317153D02*
G01X161740Y316897D01*
G01X161740Y316897D02*
G01X162700Y316641D01*
G01X162700Y316641D02*
G01X164300Y316641D01*
G01X164300Y316641D02*
G01X165260Y316897D01*
G01X165260Y316897D02*
G01X165900Y317153D01*
G01X165900Y317153D02*
G01X166540Y317637D01*
G01X166540Y317637D02*
G01X166860Y318149D01*
G01X166860Y318149D02*
G01X166860Y319144D01*
G01X166860Y319144D02*
G01X166540Y319628D01*
G01X166540Y319628D02*
G01X165900Y320140D01*
G01X165900Y320140D02*
G01X165260Y320367D01*
G01X165260Y320367D02*
G01X164300Y320623D01*
G01X164300Y320623D02*
G01X162700Y320623D01*
G01X162700Y320623D02*
G01X161740Y320367D01*
G01X161740Y320367D02*
G01X161100Y320140D01*
G01X161100Y320140D02*
G01X160460Y319628D01*
G01X160460Y319628D02*
G01X160140Y319144D01*
G01X160140Y319144D02*
G01X160140Y318149D01*
G01X161740Y497781D02*
G01X161100Y497525D01*
G01X161100Y497525D02*
G01X160460Y497041D01*
G01X160460Y497041D02*
G01X160140Y496529D01*
G01X160140Y496529D02*
G01X160140Y495534D01*
G01X160140Y495534D02*
G01X160460Y495050D01*
G01X160460Y495050D02*
G01X161100Y494538D01*
G01X161100Y494538D02*
G01X161740Y494311D01*
G01X161740Y494311D02*
G01X162700Y494055D01*
G01X162700Y494055D02*
G01X164300Y494055D01*
G01X164300Y494055D02*
G01X165260Y494311D01*
G01X165260Y494311D02*
G01X165900Y494538D01*
G01X165900Y494538D02*
G01X166540Y495050D01*
G01X166540Y495050D02*
G01X166860Y495534D01*
G01X166860Y495534D02*
G01X166860Y496529D01*
G01X166860Y496529D02*
G01X166540Y497041D01*
G01X166540Y497041D02*
G01X165900Y497525D01*
G01X165900Y497525D02*
G01X165260Y497781D01*
G01X165260Y497781D02*
G01X164300Y497781D01*
G01X164300Y496529D02*
G01X164300Y497781D01*
G01X160140Y500281D02*
G01X166860Y500281D01*
G01X160140Y500281D02*
G01X166860Y504263D01*
G01X160140Y504263D02*
G01X166860Y504263D01*
G01X160140Y506763D02*
G01X166860Y506763D01*
G01X160140Y506763D02*
G01X160140Y508754D01*
G01X160140Y508754D02*
G01X160460Y509608D01*
G01X160460Y509608D02*
G01X161100Y510176D01*
G01X161100Y510176D02*
G01X161740Y510461D01*
G01X161740Y510461D02*
G01X162700Y510745D01*
G01X162700Y510745D02*
G01X164300Y510745D01*
G01X164300Y510745D02*
G01X165260Y510461D01*
G01X165260Y510461D02*
G01X165900Y510176D01*
G01X165900Y510176D02*
G01X166540Y509608D01*
G01X166540Y509608D02*
G01X166860Y508754D01*
G01X166860Y508754D02*
G01X166860Y506763D01*
G01X160140Y519583D02*
G01X166860Y521574D01*
G01X160140Y523565D02*
G01X166860Y521574D01*
G01X161740Y529791D02*
G01X161100Y529535D01*
G01X161100Y529535D02*
G01X160460Y529052D01*
G01X160460Y529052D02*
G01X160140Y528540D01*
G01X160140Y528540D02*
G01X160140Y527544D01*
G01X160140Y527544D02*
G01X160460Y527060D01*
G01X160460Y527060D02*
G01X161100Y526548D01*
G01X161100Y526548D02*
G01X161740Y526321D01*
G01X161740Y526321D02*
G01X162700Y526065D01*
G01X162700Y526065D02*
G01X164300Y526065D01*
G01X164300Y526065D02*
G01X165260Y526321D01*
G01X165260Y526321D02*
G01X165900Y526548D01*
G01X165900Y526548D02*
G01X166540Y527060D01*
G01X166540Y527060D02*
G01X166860Y527544D01*
G01X166860Y527544D02*
G01X166860Y528540D01*
G01X166860Y528540D02*
G01X166540Y529052D01*
G01X166540Y529052D02*
G01X165900Y529535D01*
G01X165900Y529535D02*
G01X165260Y529791D01*
G01X161740Y536017D02*
G01X161100Y535761D01*
G01X161100Y535761D02*
G01X160460Y535278D01*
G01X160460Y535278D02*
G01X160140Y534766D01*
G01X160140Y534766D02*
G01X160140Y533770D01*
G01X160140Y533770D02*
G01X160460Y533287D01*
G01X160460Y533287D02*
G01X161100Y532775D01*
G01X161100Y532775D02*
G01X161740Y532547D01*
G01X161740Y532547D02*
G01X162700Y532291D01*
G01X162700Y532291D02*
G01X164300Y532291D01*
G01X164300Y532291D02*
G01X165260Y532547D01*
G01X165260Y532547D02*
G01X165900Y532775D01*
G01X165900Y532775D02*
G01X166540Y533287D01*
G01X166540Y533287D02*
G01X166860Y533770D01*
G01X166860Y533770D02*
G01X166860Y534766D01*
G01X166860Y534766D02*
G01X166540Y535278D01*
G01X166540Y535278D02*
G01X165900Y535761D01*
G01X165900Y535761D02*
G01X165260Y536017D01*
G01X161100Y233450D02*
G01X160460Y232881D01*
G01X160460Y232881D02*
G01X160140Y232028D01*
G01X160140Y232028D02*
G01X160140Y230890D01*
G01X160140Y230890D02*
G01X160460Y230037D01*
G01X160460Y230037D02*
G01X161100Y229468D01*
G01X161100Y229468D02*
G01X161740Y229468D01*
G01X161740Y229468D02*
G01X162380Y229752D01*
G01X162380Y229752D02*
G01X162700Y230037D01*
G01X162700Y230037D02*
G01X163020Y230606D01*
G01X163020Y230606D02*
G01X163660Y232312D01*
G01X163660Y232312D02*
G01X163980Y232881D01*
G01X163980Y232881D02*
G01X164300Y233166D01*
G01X164300Y233166D02*
G01X164940Y233450D01*
G01X164940Y233450D02*
G01X165900Y233450D01*
G01X165900Y233450D02*
G01X166540Y232881D01*
G01X166540Y232881D02*
G01X166860Y232028D01*
G01X166860Y232028D02*
G01X166860Y230890D01*
G01X166860Y230890D02*
G01X166540Y230037D01*
G01X166540Y230037D02*
G01X165900Y229468D01*
G01X161100Y239932D02*
G01X160460Y239363D01*
G01X160460Y239363D02*
G01X160140Y238510D01*
G01X160140Y238510D02*
G01X160140Y237372D01*
G01X160140Y237372D02*
G01X160460Y236519D01*
G01X160460Y236519D02*
G01X161100Y235950D01*
G01X161100Y235950D02*
G01X161740Y235950D01*
G01X161740Y235950D02*
G01X162380Y236234D01*
G01X162380Y236234D02*
G01X162700Y236519D01*
G01X162700Y236519D02*
G01X163020Y237088D01*
G01X163020Y237088D02*
G01X163660Y238794D01*
G01X163660Y238794D02*
G01X163980Y239363D01*
G01X163980Y239363D02*
G01X164300Y239648D01*
G01X164300Y239648D02*
G01X164940Y239932D01*
G01X164940Y239932D02*
G01X165900Y239932D01*
G01X165900Y239932D02*
G01X166540Y239363D01*
G01X166540Y239363D02*
G01X166860Y238510D01*
G01X166860Y238510D02*
G01X166860Y237372D01*
G01X166860Y237372D02*
G01X166540Y236519D01*
G01X166540Y236519D02*
G01X165900Y235950D01*
G01X161100Y472779D02*
G01X160460Y472210D01*
G01X160460Y472210D02*
G01X160140Y471357D01*
G01X160140Y471357D02*
G01X160140Y470219D01*
G01X160140Y470219D02*
G01X160460Y469366D01*
G01X160460Y469366D02*
G01X161100Y468797D01*
G01X161100Y468797D02*
G01X161740Y468797D01*
G01X161740Y468797D02*
G01X162380Y469081D01*
G01X162380Y469081D02*
G01X162700Y469366D01*
G01X162700Y469366D02*
G01X163020Y469935D01*
G01X163020Y469935D02*
G01X163660Y471641D01*
G01X163660Y471641D02*
G01X163980Y472210D01*
G01X163980Y472210D02*
G01X164300Y472495D01*
G01X164300Y472495D02*
G01X164940Y472779D01*
G01X164940Y472779D02*
G01X165900Y472779D01*
G01X165900Y472779D02*
G01X166540Y472210D01*
G01X166540Y472210D02*
G01X166860Y471357D01*
G01X166860Y471357D02*
G01X166860Y470219D01*
G01X166860Y470219D02*
G01X166540Y469366D01*
G01X166540Y469366D02*
G01X165900Y468797D01*
G01X161740Y479005D02*
G01X161100Y478749D01*
G01X161100Y478749D02*
G01X160460Y478266D01*
G01X160460Y478266D02*
G01X160140Y477754D01*
G01X160140Y477754D02*
G01X160140Y476758D01*
G01X160140Y476758D02*
G01X160460Y476275D01*
G01X160460Y476275D02*
G01X161100Y475763D01*
G01X161100Y475763D02*
G01X161740Y475535D01*
G01X161740Y475535D02*
G01X162700Y475279D01*
G01X162700Y475279D02*
G01X164300Y475279D01*
G01X164300Y475279D02*
G01X165260Y475535D01*
G01X165260Y475535D02*
G01X165900Y475763D01*
G01X165900Y475763D02*
G01X166540Y476275D01*
G01X166540Y476275D02*
G01X166860Y476758D01*
G01X166860Y476758D02*
G01X166860Y477754D01*
G01X166860Y477754D02*
G01X166540Y478266D01*
G01X166540Y478266D02*
G01X165900Y478749D01*
G01X165900Y478749D02*
G01X165260Y479005D01*
G01X160140Y481790D02*
G01X166860Y481790D01*
G01X166860Y481790D02*
G01X166860Y485203D01*
G01X161740Y369531D02*
G01X161100Y369275D01*
G01X161100Y369275D02*
G01X160460Y368791D01*
G01X160460Y368791D02*
G01X160140Y368279D01*
G01X160140Y368279D02*
G01X160140Y367284D01*
G01X160140Y367284D02*
G01X160460Y366800D01*
G01X160460Y366800D02*
G01X161100Y366288D01*
G01X161100Y366288D02*
G01X161740Y366061D01*
G01X161740Y366061D02*
G01X162700Y365805D01*
G01X162700Y365805D02*
G01X164300Y365805D01*
G01X164300Y365805D02*
G01X165260Y366061D01*
G01X165260Y366061D02*
G01X165900Y366288D01*
G01X165900Y366288D02*
G01X166540Y366800D01*
G01X166540Y366800D02*
G01X166860Y367284D01*
G01X166860Y367284D02*
G01X166860Y368279D01*
G01X166860Y368279D02*
G01X166540Y368791D01*
G01X166540Y368791D02*
G01X165900Y369275D01*
G01X165900Y369275D02*
G01X165260Y369531D01*
G01X165260Y369531D02*
G01X164300Y369531D01*
G01X164300Y368279D02*
G01X164300Y369531D01*
G01X160140Y372031D02*
G01X166860Y372031D01*
G01X160140Y372031D02*
G01X160140Y374591D01*
G01X160140Y374591D02*
G01X160460Y375444D01*
G01X160460Y375444D02*
G01X160780Y375729D01*
G01X160780Y375729D02*
G01X161420Y376013D01*
G01X161420Y376013D02*
G01X162380Y376013D01*
G01X162380Y376013D02*
G01X163020Y375729D01*
G01X163020Y375729D02*
G01X163340Y375444D01*
G01X163340Y375444D02*
G01X163660Y374591D01*
G01X163660Y374591D02*
G01X163660Y372031D01*
G01X160140Y378513D02*
G01X166860Y378513D01*
G01X160140Y382521D02*
G01X160460Y382009D01*
G01X160460Y382009D02*
G01X161100Y381525D01*
G01X161100Y381525D02*
G01X161740Y381269D01*
G01X161740Y381269D02*
G01X162700Y381013D01*
G01X162700Y381013D02*
G01X164300Y381013D01*
G01X164300Y381013D02*
G01X165260Y381269D01*
G01X165260Y381269D02*
G01X165900Y381525D01*
G01X165900Y381525D02*
G01X166540Y382009D01*
G01X166540Y382009D02*
G01X166860Y382521D01*
G01X166860Y382521D02*
G01X166860Y383516D01*
G01X166860Y383516D02*
G01X166540Y384000D01*
G01X166540Y384000D02*
G01X165900Y384512D01*
G01X165900Y384512D02*
G01X165260Y384739D01*
G01X165260Y384739D02*
G01X164300Y384995D01*
G01X164300Y384995D02*
G01X162700Y384995D01*
G01X162700Y384995D02*
G01X161740Y384739D01*
G01X161740Y384739D02*
G01X161100Y384512D01*
G01X161100Y384512D02*
G01X160460Y384000D01*
G01X160460Y384000D02*
G01X160140Y383516D01*
G01X160140Y383516D02*
G01X160140Y382521D01*
G01X160140Y250377D02*
G01X166860Y250377D01*
G01X160140Y250377D02*
G01X166860Y252368D01*
G01X160140Y254359D02*
G01X166860Y252368D01*
G01X160140Y254359D02*
G01X166860Y254359D01*
G01X160140Y258366D02*
G01X160460Y257854D01*
G01X160460Y257854D02*
G01X161100Y257371D01*
G01X161100Y257371D02*
G01X161740Y257115D01*
G01X161740Y257115D02*
G01X162700Y256859D01*
G01X162700Y256859D02*
G01X164300Y256859D01*
G01X164300Y256859D02*
G01X165260Y257115D01*
G01X165260Y257115D02*
G01X165900Y257371D01*
G01X165900Y257371D02*
G01X166540Y257854D01*
G01X166540Y257854D02*
G01X166860Y258366D01*
G01X166860Y258366D02*
G01X166860Y259362D01*
G01X166860Y259362D02*
G01X166540Y259846D01*
G01X166540Y259846D02*
G01X165900Y260358D01*
G01X165900Y260358D02*
G01X165260Y260585D01*
G01X165260Y260585D02*
G01X164300Y260841D01*
G01X164300Y260841D02*
G01X162700Y260841D01*
G01X162700Y260841D02*
G01X161740Y260585D01*
G01X161740Y260585D02*
G01X161100Y260358D01*
G01X161100Y260358D02*
G01X160460Y259846D01*
G01X160460Y259846D02*
G01X160140Y259362D01*
G01X160140Y259362D02*
G01X160140Y258366D01*
G01X161100Y267323D02*
G01X160460Y266754D01*
G01X160460Y266754D02*
G01X160140Y265901D01*
G01X160140Y265901D02*
G01X160140Y264763D01*
G01X160140Y264763D02*
G01X160460Y263910D01*
G01X160460Y263910D02*
G01X161100Y263341D01*
G01X161100Y263341D02*
G01X161740Y263341D01*
G01X161740Y263341D02*
G01X162380Y263626D01*
G01X162380Y263626D02*
G01X162700Y263910D01*
G01X162700Y263910D02*
G01X163020Y264479D01*
G01X163020Y264479D02*
G01X163660Y266186D01*
G01X163660Y266186D02*
G01X163980Y266754D01*
G01X163980Y266754D02*
G01X164300Y267039D01*
G01X164300Y267039D02*
G01X164940Y267323D01*
G01X164940Y267323D02*
G01X165900Y267323D01*
G01X165900Y267323D02*
G01X166540Y266754D01*
G01X166540Y266754D02*
G01X166860Y265901D01*
G01X166860Y265901D02*
G01X166860Y264763D01*
G01X166860Y264763D02*
G01X166540Y263910D01*
G01X166540Y263910D02*
G01X165900Y263341D01*
G01X160140Y269823D02*
G01X166860Y269823D01*
G01X160140Y395568D02*
G01X166860Y395568D01*
G01X160140Y395568D02*
G01X160140Y398128D01*
G01X160140Y398128D02*
G01X160460Y398981D01*
G01X160460Y398981D02*
G01X160780Y399266D01*
G01X160780Y399266D02*
G01X161420Y399550D01*
G01X161420Y399550D02*
G01X162060Y399550D01*
G01X162060Y399550D02*
G01X162700Y399266D01*
G01X162700Y399266D02*
G01X163020Y398981D01*
G01X163020Y398981D02*
G01X163340Y398128D01*
G01X163340Y398128D02*
G01X163340Y395568D01*
G01X163340Y397559D02*
G01X166860Y399550D01*
G01X160140Y402050D02*
G01X166860Y406032D01*
G01X160140Y406032D02*
G01X166860Y402050D01*
G01X161740Y331681D02*
G01X161100Y331425D01*
G01X161100Y331425D02*
G01X160460Y330941D01*
G01X160460Y330941D02*
G01X160140Y330429D01*
G01X160140Y330429D02*
G01X160140Y329434D01*
G01X160140Y329434D02*
G01X160460Y328950D01*
G01X160460Y328950D02*
G01X161100Y328438D01*
G01X161100Y328438D02*
G01X161740Y328211D01*
G01X161740Y328211D02*
G01X162700Y327955D01*
G01X162700Y327955D02*
G01X164300Y327955D01*
G01X164300Y327955D02*
G01X165260Y328211D01*
G01X165260Y328211D02*
G01X165900Y328438D01*
G01X165900Y328438D02*
G01X166540Y328950D01*
G01X166540Y328950D02*
G01X166860Y329434D01*
G01X166860Y329434D02*
G01X166860Y330429D01*
G01X166860Y330429D02*
G01X166540Y330941D01*
G01X166540Y330941D02*
G01X165900Y331425D01*
G01X165900Y331425D02*
G01X165260Y331681D01*
G01X165260Y331681D02*
G01X164300Y331681D01*
G01X164300Y330429D02*
G01X164300Y331681D01*
G01X160140Y334181D02*
G01X166860Y334181D01*
G01X160140Y334181D02*
G01X166860Y338163D01*
G01X160140Y338163D02*
G01X166860Y338163D01*
G01X160140Y340663D02*
G01X166860Y340663D01*
G01X160140Y340663D02*
G01X160140Y342654D01*
G01X160140Y342654D02*
G01X160460Y343508D01*
G01X160460Y343508D02*
G01X161100Y344076D01*
G01X161100Y344076D02*
G01X161740Y344361D01*
G01X161740Y344361D02*
G01X162700Y344645D01*
G01X162700Y344645D02*
G01X164300Y344645D01*
G01X164300Y344645D02*
G01X165260Y344361D01*
G01X165260Y344361D02*
G01X165900Y344076D01*
G01X165900Y344076D02*
G01X166540Y343508D01*
G01X166540Y343508D02*
G01X166860Y342654D01*
G01X166860Y342654D02*
G01X166860Y340663D01*
G01X94228Y122550D02*
G01X94228Y114150D01*
G01X94228Y114150D02*
G01X98494Y114150D01*
G01X101494Y122550D02*
G01X101494Y114150D01*
G01X101494Y122550D02*
G01X106117Y122550D01*
G01X101494Y118550D02*
G01X104339Y118550D01*
G01X101494Y114150D02*
G01X106117Y114150D01*
G01X109117Y122550D02*
G01X109117Y114150D01*
G01X109117Y122550D02*
G01X111606Y122550D01*
G01X111606Y122550D02*
G01X112672Y122150D01*
G01X112672Y122150D02*
G01X113383Y121350D01*
G01X113383Y121350D02*
G01X113739Y120550D01*
G01X113739Y120550D02*
G01X114094Y119350D01*
G01X114094Y119350D02*
G01X114094Y117350D01*
G01X114094Y117350D02*
G01X113739Y116150D01*
G01X113739Y116150D02*
G01X113383Y115350D01*
G01X113383Y115350D02*
G01X112672Y114550D01*
G01X112672Y114550D02*
G01X111606Y114150D01*
G01X111606Y114150D02*
G01X109117Y114150D01*
G01X117806Y122550D02*
G01X121717Y122550D01*
G01X121717Y122550D02*
G01X119583Y119350D01*
G01X119583Y119350D02*
G01X120650Y119350D01*
G01X120650Y119350D02*
G01X121361Y118950D01*
G01X121361Y118950D02*
G01X121717Y118550D01*
G01X121717Y118550D02*
G01X122072Y117350D01*
G01X122072Y117350D02*
G01X122072Y116550D01*
G01X122072Y116550D02*
G01X121717Y115350D01*
G01X121717Y115350D02*
G01X121006Y114550D01*
G01X121006Y114550D02*
G01X119939Y114150D01*
G01X119939Y114150D02*
G01X118872Y114150D01*
G01X118872Y114150D02*
G01X117806Y114550D01*
G01X117806Y114550D02*
G01X117450Y114950D01*
G01X117450Y114950D02*
G01X117094Y115750D01*
G01X94328Y111700D02*
G01X94328Y103300D01*
G01X94328Y103300D02*
G01X98594Y103300D01*
G01X101594Y111700D02*
G01X101594Y103300D01*
G01X101594Y111700D02*
G01X106217Y111700D01*
G01X101594Y107700D02*
G01X104439Y107700D01*
G01X101594Y103300D02*
G01X106217Y103300D01*
G01X109217Y111700D02*
G01X109217Y103300D01*
G01X109217Y111700D02*
G01X111706Y111700D01*
G01X111706Y111700D02*
G01X112772Y111300D01*
G01X112772Y111300D02*
G01X113483Y110500D01*
G01X113483Y110500D02*
G01X113839Y109700D01*
G01X113839Y109700D02*
G01X114194Y108500D01*
G01X114194Y108500D02*
G01X114194Y106500D01*
G01X114194Y106500D02*
G01X113839Y105300D01*
G01X113839Y105300D02*
G01X113483Y104500D01*
G01X113483Y104500D02*
G01X112772Y103700D01*
G01X112772Y103700D02*
G01X111706Y103300D01*
G01X111706Y103300D02*
G01X109217Y103300D01*
G01X117194Y110100D02*
G01X117906Y110500D01*
G01X117906Y110500D02*
G01X118972Y111700D01*
G01X118972Y111700D02*
G01X118972Y103300D01*
G01X94228Y100950D02*
G01X94228Y92550D01*
G01X94228Y92550D02*
G01X98494Y92550D01*
G01X101494Y100950D02*
G01X101494Y92550D01*
G01X101494Y100950D02*
G01X106117Y100950D01*
G01X101494Y96950D02*
G01X104339Y96950D01*
G01X101494Y92550D02*
G01X106117Y92550D01*
G01X109117Y100950D02*
G01X109117Y92550D01*
G01X109117Y100950D02*
G01X111606Y100950D01*
G01X111606Y100950D02*
G01X112672Y100550D01*
G01X112672Y100550D02*
G01X113383Y99750D01*
G01X113383Y99750D02*
G01X113739Y98950D01*
G01X113739Y98950D02*
G01X114094Y97750D01*
G01X114094Y97750D02*
G01X114094Y95750D01*
G01X114094Y95750D02*
G01X113739Y94550D01*
G01X113739Y94550D02*
G01X113383Y93750D01*
G01X113383Y93750D02*
G01X112672Y92950D01*
G01X112672Y92950D02*
G01X111606Y92550D01*
G01X111606Y92550D02*
G01X109117Y92550D01*
G01X117450Y98950D02*
G01X117450Y99350D01*
G01X117450Y99350D02*
G01X117806Y100150D01*
G01X117806Y100150D02*
G01X118161Y100550D01*
G01X118161Y100550D02*
G01X118872Y100950D01*
G01X118872Y100950D02*
G01X120294Y100950D01*
G01X120294Y100950D02*
G01X121006Y100550D01*
G01X121006Y100550D02*
G01X121361Y100150D01*
G01X121361Y100150D02*
G01X121717Y99350D01*
G01X121717Y99350D02*
G01X121717Y98550D01*
G01X121717Y98550D02*
G01X121361Y97750D01*
G01X121361Y97750D02*
G01X120650Y96550D01*
G01X120650Y96550D02*
G01X117094Y92550D01*
G01X117094Y92550D02*
G01X122072Y92550D01*
G01X-12378Y138200D02*
G01X-12378Y132200D01*
G01X-12378Y132200D02*
G01X-12022Y131000D01*
G01X-12022Y131000D02*
G01X-11311Y130200D01*
G01X-11311Y130200D02*
G01X-10244Y129800D01*
G01X-10244Y129800D02*
G01X-9533Y129800D01*
G01X-9533Y129800D02*
G01X-8467Y130200D01*
G01X-8467Y130200D02*
G01X-7756Y131000D01*
G01X-7756Y131000D02*
G01X-7400Y132200D01*
G01X-7400Y132200D02*
G01X-7400Y138200D01*
G01X-0133Y138200D02*
G01X-3689Y138200D01*
G01X-3689Y138200D02*
G01X-4044Y134600D01*
G01X-4044Y134600D02*
G01X-3689Y135000D01*
G01X-3689Y135000D02*
G01X-2622Y135400D01*
G01X-2622Y135400D02*
G01X-1556Y135400D01*
G01X-1556Y135400D02*
G01X-0489Y135000D01*
G01X-0489Y135000D02*
G01X0222Y134200D01*
G01X0222Y134200D02*
G01X0578Y133000D01*
G01X0578Y133000D02*
G01X0578Y132200D01*
G01X0578Y132200D02*
G01X0222Y131000D01*
G01X0222Y131000D02*
G01X-0489Y130200D01*
G01X-0489Y130200D02*
G01X-1556Y129800D01*
G01X-1556Y129800D02*
G01X-2622Y129800D01*
G01X-2622Y129800D02*
G01X-3689Y130200D01*
G01X-3689Y130200D02*
G01X-4044Y130600D01*
G01X-4044Y130600D02*
G01X-4400Y131400D01*
G01X95800Y13700D02*
G01X101800Y13700D01*
G01X101800Y13700D02*
G01X103000Y14056D01*
G01X103000Y14056D02*
G01X103800Y14767D01*
G01X103800Y14767D02*
G01X104200Y15833D01*
G01X104200Y15833D02*
G01X104200Y16544D01*
G01X104200Y16544D02*
G01X103800Y17611D01*
G01X103800Y17611D02*
G01X103000Y18322D01*
G01X103000Y18322D02*
G01X101800Y18678D01*
G01X101800Y18678D02*
G01X95800Y18678D01*
G01X97000Y25944D02*
G01X96200Y25589D01*
G01X96200Y25589D02*
G01X95800Y24522D01*
G01X95800Y24522D02*
G01X95800Y23811D01*
G01X95800Y23811D02*
G01X96200Y22744D01*
G01X96200Y22744D02*
G01X97400Y22033D01*
G01X97400Y22033D02*
G01X99400Y21678D01*
G01X99400Y21678D02*
G01X101400Y21678D01*
G01X101400Y21678D02*
G01X103000Y22033D01*
G01X103000Y22033D02*
G01X103800Y22744D01*
G01X103800Y22744D02*
G01X104200Y23811D01*
G01X104200Y23811D02*
G01X104200Y24167D01*
G01X104200Y24167D02*
G01X103800Y25233D01*
G01X103800Y25233D02*
G01X103000Y25944D01*
G01X103000Y25944D02*
G01X101800Y26300D01*
G01X101800Y26300D02*
G01X101400Y26300D01*
G01X101400Y26300D02*
G01X100200Y25944D01*
G01X100200Y25944D02*
G01X99400Y25233D01*
G01X99400Y25233D02*
G01X99000Y24167D01*
G01X99000Y24167D02*
G01X99000Y23811D01*
G01X99000Y23811D02*
G01X99400Y22744D01*
G01X99400Y22744D02*
G01X100200Y22033D01*
G01X100200Y22033D02*
G01X101400Y21678D01*
G54D13*
G01X-146650Y126650D02*
G01X-160650Y126650D01*
G01X-146650Y156750D02*
G01X-146650Y126650D01*
G01X-160650Y156750D02*
G01X-146650Y156750D01*
G01X-160650Y126650D02*
G01X-160650Y156750D01*
G01X-101350Y145550D02*
G01X-87350Y145550D01*
G01X-101350Y115450D02*
G01X-101350Y145550D01*
G01X-87350Y115450D02*
G01X-101350Y115450D01*
G01X-87350Y145550D02*
G01X-87350Y115450D01*
G01X-106300Y195100D02*
G01X-106300Y220100D01*
G01X-83800Y195100D02*
G01X-121800Y195100D01*
G01X-99300Y220100D02*
G01X-99300Y195100D01*
G01X-121800Y220100D02*
G01X-83800Y220100D01*
G01X-104800Y195100D02*
G01X-104800Y220100D01*
G01X-103300Y195100D02*
G01X-103300Y220100D01*
G01X-101800Y195100D02*
G01X-101800Y220100D01*
G01X-100800Y195100D02*
G01X-100800Y220100D01*
G01X-116950Y226050D02*
G01X-116950Y240050D01*
G01X-86850Y226050D02*
G01X-116950Y226050D01*
G01X-86850Y240050D02*
G01X-86850Y226050D01*
G01X-116950Y240050D02*
G01X-86850Y240050D01*
G01X-95650Y279550D02*
G01X-109650Y279550D01*
G01X-95650Y309650D02*
G01X-95650Y279550D01*
G01X-109650Y309650D02*
G01X-95650Y309650D01*
G01X-109650Y279550D02*
G01X-109650Y309650D01*
G01X-48150Y111150D02*
G01X-34150Y111150D01*
G01X-48150Y81050D02*
G01X-48150Y111150D01*
G01X-34150Y81050D02*
G01X-48150Y81050D01*
G01X-34150Y111150D02*
G01X-34150Y81050D01*
G01X-76550Y234550D02*
G01X-62550Y234550D01*
G01X-76550Y204450D02*
G01X-76550Y234550D01*
G01X-62550Y204450D02*
G01X-76550Y204450D01*
G01X-62550Y234550D02*
G01X-62550Y204450D01*
G01X-127450Y126650D02*
G01X-141450Y126650D01*
G01X-127450Y156750D02*
G01X-127450Y126650D01*
G01X-141450Y156750D02*
G01X-127450Y156750D01*
G01X-141450Y126650D02*
G01X-141450Y156750D01*
G01X-108450Y126650D02*
G01X-122450Y126650D01*
G01X-108450Y156750D02*
G01X-108450Y126650D01*
G01X-122450Y156750D02*
G01X-108450Y156750D01*
G01X-122450Y126650D02*
G01X-122450Y156750D01*
G01X152700Y209300D02*
G03I-12700J0D01*
G01X152700Y234700D02*
G03I-12700J0D01*
G01X152700Y260100D02*
G03I-12700J0D01*
G01X152700Y285500D02*
G03I-12700J0D01*
G01X152700Y310900D02*
G03I-12700J0D01*
G01X152700Y336300D02*
G03I-12700J0D01*
G01X152700Y527800D02*
G03I-12700J0D01*
G01X152700Y502400D02*
G03I-12700J0D01*
G01X152700Y477000D02*
G03I-12700J0D01*
G01X152700Y451600D02*
G03I-12700J0D01*
G01X152700Y426200D02*
G03I-12700J0D01*
G01X152700Y400800D02*
G03I-12700J0D01*
G01X152700Y375400D02*
G03I-12700J0D01*
G01X-127300Y456100D02*
G03I-12700J0D01*
G01X-127300Y430700D02*
G03I-12700J0D01*
G01X-127300Y405300D02*
G03I-12700J0D01*
G01X-127300Y379900D02*
G03I-12700J0D01*
G01X-127300Y354500D02*
G03I-12700J0D01*
G01X-127300Y329100D02*
G03I-12700J0D01*
G01X-127300Y303700D02*
G03I-12700J0D01*
G01X33600Y84400D02*
G01X46600Y84400D01*
G01X46600Y84400D02*
G01X46600Y103400D01*
G01X46600Y103400D02*
G01X33600Y103400D01*
G01X33600Y103400D02*
G01X33600Y84400D01*
G01X-90000Y550000D02*
G01X90000Y550000D01*
G01X-90000Y355000D02*
G01X90000Y355000D01*
G01X90000Y355000D02*
G01X90000Y610000D01*
G01X90000Y610000D02*
G01X-90000Y610000D01*
G01X-90000Y610000D02*
G01X-90000Y355000D01*
G01X-104700Y150400D02*
G01X-104700Y186400D01*
G01X-104700Y186400D02*
G01X-85700Y186400D01*
G01X-85700Y186400D02*
G01X-85700Y150400D01*
G01X-85700Y150400D02*
G01X-104700Y150400D01*
G01X-13600Y319050D02*
G01X-13600Y305050D01*
G01X-43700Y319050D02*
G01X-13600Y319050D01*
G01X-43700Y305050D02*
G01X-43700Y319050D01*
G01X-13600Y305050D02*
G01X-43700Y305050D01*
G01X69450Y272650D02*
G01X83450Y272650D01*
G01X69450Y242550D02*
G01X69450Y272650D01*
G01X83450Y242550D02*
G01X69450Y242550D01*
G01X83450Y272650D02*
G01X83450Y242550D01*
G01X104550Y243050D02*
G01X90550Y243050D01*
G01X104550Y273150D02*
G01X104550Y243050D01*
G01X90550Y273150D02*
G01X104550Y273150D01*
G01X90550Y243050D02*
G01X90550Y273150D01*
G01X-13600Y300050D02*
G01X-13600Y286050D01*
G01X-43700Y300050D02*
G01X-13600Y300050D01*
G01X-43700Y286050D02*
G01X-43700Y300050D01*
G01X-13600Y286050D02*
G01X-43700Y286050D01*
G01X-13600Y281050D02*
G01X-13600Y267050D01*
G01X-43700Y281050D02*
G01X-13600Y281050D01*
G01X-43700Y267050D02*
G01X-43700Y281050D01*
G01X-13600Y267050D02*
G01X-43700Y267050D01*
G01X62650Y324750D02*
G01X62650Y338750D01*
G01X92750Y324750D02*
G01X62650Y324750D01*
G01X92750Y338750D02*
G01X92750Y324750D01*
G01X62650Y338750D02*
G01X92750Y338750D01*
G01X123600Y158100D02*
G01X123600Y144100D01*
G01X93500Y158100D02*
G01X123600Y158100D01*
G01X93500Y144100D02*
G01X93500Y158100D01*
G01X123600Y144100D02*
G01X93500Y144100D01*
G01X123600Y177850D02*
G01X123600Y163850D01*
G01X93500Y177850D02*
G01X123600Y177850D01*
G01X93500Y163850D02*
G01X93500Y177850D01*
G01X123600Y163850D02*
G01X93500Y163850D01*
G01X88650Y219450D02*
G01X102650Y219450D01*
G01X88650Y189350D02*
G01X88650Y219450D01*
G01X102650Y189350D02*
G01X88650Y189350D01*
G01X102650Y219450D02*
G01X102650Y189350D01*
G01X123600Y138750D02*
G01X123600Y124750D01*
G01X93500Y138750D02*
G01X123600Y138750D01*
G01X93500Y124750D02*
G01X93500Y138750D01*
G01X123600Y124750D02*
G01X93500Y124750D01*
G01X-92650Y80150D02*
G01X-159750Y80150D01*
G01X-159750Y80150D02*
G01X-159750Y43050D01*
G01X-159750Y43050D02*
G01X-92650Y43050D01*
G01X-92650Y43050D02*
G01X-92650Y80150D01*
G01X21700Y283600D02*
G01X21700Y298600D01*
G01X21700Y298600D02*
G01X-7300Y298600D01*
G01X-7300Y298600D02*
G01X-7300Y283600D01*
G01X-7300Y283600D02*
G01X21700Y283600D01*
G01X101700Y288900D02*
G01X101700Y303900D01*
G01X101700Y303900D02*
G01X72700Y303900D01*
G01X72700Y303900D02*
G01X72700Y288900D01*
G01X72700Y288900D02*
G01X101700Y288900D01*
G01X19700Y252600D02*
G01X-33300Y252600D01*
G01X-33300Y252600D02*
G01X-33300Y150600D01*
G01X-33300Y150600D02*
G01X19700Y150600D01*
G01X19700Y150600D02*
G01X19700Y252600D01*
G01X-60000Y-3800D02*
G01X60000Y-3800D01*
G01X60000Y-3800D02*
G01X60000Y-2300D01*
G01X-60000Y-138300D02*
G01X60000Y-138300D01*
G01X60000Y-138300D02*
G01X60000Y48700D01*
G01X60000Y48700D02*
G01X-60000Y48700D01*
G01X-60000Y48700D02*
G01X-60000Y-138300D01*
G01X-9500Y93500D02*
G03I-0500J0D01*
G01X160900Y138750D02*
G01X160900Y124750D01*
G01X130800Y138750D02*
G01X160900Y138750D01*
G01X130800Y124750D02*
G01X130800Y138750D01*
G01X160900Y124750D02*
G01X130800Y124750D01*
G01X130800Y124750D02*
G01X126850Y124750D01*
G01X126850Y124750D02*
G01X126850Y138750D01*
G01X126850Y138750D02*
G01X128850Y138750D01*
G01X128850Y138750D02*
G01X128850Y125700D01*
G01X128850Y125700D02*
G01X130800Y125700D01*
G01X130800Y125700D02*
G01X130800Y138750D01*
G01X130800Y138750D02*
G01X127850Y138750D01*
G01X160900Y158100D02*
G01X160900Y144100D01*
G01X130800Y158100D02*
G01X160900Y158100D01*
G01X130800Y144100D02*
G01X130800Y158100D01*
G01X160900Y144100D02*
G01X130800Y144100D01*
G01X130800Y144100D02*
G01X126850Y144100D01*
G01X126850Y144100D02*
G01X126850Y158100D01*
G01X126850Y158100D02*
G01X128850Y158100D01*
G01X128850Y158100D02*
G01X128850Y145050D01*
G01X128850Y145050D02*
G01X130800Y145050D01*
G01X130800Y145050D02*
G01X130800Y158100D01*
G01X130800Y158100D02*
G01X127850Y158100D01*
G01X160900Y177850D02*
G01X160900Y163850D01*
G01X130800Y177850D02*
G01X160900Y177850D01*
G01X130800Y163850D02*
G01X130800Y177850D01*
G01X160900Y163850D02*
G01X130800Y163850D01*
G01X130800Y163850D02*
G01X126850Y163850D01*
G01X126850Y163850D02*
G01X126850Y177850D01*
G01X126850Y177850D02*
G01X128850Y177850D01*
G01X128850Y177850D02*
G01X128850Y164800D01*
G01X128850Y164800D02*
G01X130800Y164800D01*
G01X130800Y164800D02*
G01X130800Y177850D01*
G01X130800Y177850D02*
G01X127850Y177850D01*
G01X-15400Y104500D02*
G01X14600Y104500D01*
G01X14600Y104500D02*
G01X14600Y87500D01*
G01X14600Y87500D02*
G01X-15400Y87500D01*
G01X-15400Y87500D02*
G01X-15400Y104500D01*
G01X-9782Y93500D02*
G03I-1118J0D01*
G01X175000Y10500D02*
G01X175000Y90500D01*
G01X175000Y90500D02*
G01X109000Y90500D01*
G01X109000Y90500D02*
G01X109000Y10500D01*
G01X109000Y10500D02*
G01X175000Y10500D01*
M02*
