M48
METRIC,TZ,0000.0000
VER,1
FMAT,2
T01C0.3000
T02C0.5000
T03C0.6500
T04C0.8000
T05C0.8000
T06C1.0000
T07C1.1000
T08C1.2000
T09C2.0000
DETECT, ON
ATC, ON
%
T01
X62500Y69500
X19500Y73500
X78000Y64500
X-18500Y71500
X7600Y152000
X9100Y121500
X-10000Y122500
X-3000Y155000
X72500Y451000
X71500Y477500
X64900Y510500
X-77000Y421000
X-57000Y420700
X52000Y237000
X60500Y255000
X6500Y252500
X15000Y370500
X120000Y404000
X75000Y434500
X77000Y412500
X78000Y424500
X116500Y190500
X-5000Y250000
X-18000Y257500
X-21150Y324000
X2500Y376000
X-27500Y368000
X114500Y334000
X106500Y430000
X-0400Y72000
X58000Y207350
X-54500Y94400
X60000Y110000
X-102700Y332000
X-23500Y461000
X-23500Y443500
X-5000Y442500
X8000Y539000
X-8500Y539000
X-76500Y18000
X-85500Y18000
X33000Y149000
X24000Y131000
X-22000Y211350
X5000Y211000
T02
X-75500Y147000
X25000Y539000
X46500Y127000
X-26500Y533900
X-148500Y276000
T03
X121750Y14750
X119000Y14750
X116250Y14750
X156250Y14750
X153500Y14750
X150750Y14750
X121750Y86250
X119000Y86250
X116250Y86250
X156250Y86250
X153500Y86250
X150750Y86250
T04
X-32000Y380900
T05
X130500Y30500
X130500Y70500
T06
X140000Y209300
X140000Y234700
X140000Y260100
X140000Y285500
X140000Y310900
X140000Y336300
X140000Y527800
X140000Y477000
X140000Y451600
X140000Y426200
X140000Y400800
X140000Y375400
X140000Y502400
X-140000Y456100
X-140000Y430700
X-140000Y379900
X-140000Y354500
X-140000Y329100
X-140000Y303700
X-140000Y405300
X-140000Y248500
X-140000Y223100
X-140000Y197700
T07
X-22500Y26200
X22500Y26200
T08
X-58500Y19700
X-58500Y26200
X-58500Y32700
X58500Y19700
X58500Y26200
X58500Y32700
T09
X140000Y104500
X-140000Y485500
M30
